<?xml version="1.0" encoding="utf-8"?>
<!-- Generator: Adobe Illustrator 26.3.1, SVG Export Plug-In . SVG Version: 6.00 Build 0)  -->
<svg version="1.1" id="圖層_1" xmlns="http://www.w3.org/2000/svg" xmlns:xlink="http://www.w3.org/1999/xlink" x="0px" y="0px"
	 viewBox="0 0 180 180" style="enable-background:new 0 0 180 180;" xml:space="preserve">
<style type="text/css">
	.st0{fill:url(#XMLID_00000067944742324783019000000015820684639135560609_);}
	.st1{fill:url(#XMLID_00000085960737601779948970000003134382633745189511_);}
	.st2{fill:url(#XMLID_00000179636375123127222130000002883966880381547143_);}
	.st3{fill:url(#XMLID_00000032622979600284169500000002115849427474962060_);}
	.st4{fill:url(#XMLID_00000113333710385492662920000006444143673858709640_);}
	.st5{fill:url(#XMLID_00000134223028929226646990000002789118140340321205_);}
	.st6{fill:url(#XMLID_00000023250957711034692350000016348350070990185377_);}
	.st7{fill:url(#XMLID_00000091015511469550553710000015216362966980214459_);}
	.st8{fill:url(#XMLID_00000150079379159653221060000007325613889308335518_);}
	.st9{fill:url(#XMLID_00000122720701536262133720000001405935010398770104_);}
	.st10{fill:url(#XMLID_00000103987411823201227510000014099867683651449277_);}
	.st11{fill:url(#XMLID_00000177445157496656672970000004091185825371484297_);}
	.st12{fill:url(#XMLID_00000072991317747456152320000012004071818469143430_);}
	.st13{fill:url(#XMLID_00000095325384862738029630000010180436786866950828_);}
	.st14{fill:url(#XMLID_00000133501199691804008520000002065091818494029241_);}
	.st15{fill:url(#XMLID_00000092414425104585499560000005454966380034476418_);}
	.st16{fill:url(#XMLID_00000147183885914265720420000016227052361420137623_);}
	.st17{fill:url(#XMLID_00000117671235341946699650000016645831925247334529_);}
	.st18{fill:url(#XMLID_00000128473073027911341600000013031999704796570266_);}
	.st19{fill:url(#XMLID_00000167378949011007048640000006000216142126938257_);}
	.st20{fill:url(#XMLID_00000147905118088356564330000002802453005053533313_);}
	.st21{fill:url(#XMLID_00000159462006625259683410000003099160553171633834_);}
	.st22{fill:url(#XMLID_00000129926462453685052170000013007675819760835490_);}
	.st23{fill:url(#XMLID_00000093176189635876016870000005421697277950462628_);}
	.st24{fill:#FFFFFF;}
</style>
<g>
	<g id="XMLID_950_">
		
			<linearGradient id="XMLID_00000134211491029481729730000010673834067253891758_" gradientUnits="userSpaceOnUse" x1="68.9694" y1="-83.2607" x2="84.2134" y2="-57.5793" gradientTransform="matrix(1 0 0 1 0 106)">
			<stop  offset="0" style="stop-color:#D4582A"/>
			<stop  offset="4.115170e-02" style="stop-color:#C65227"/>
			<stop  offset="0.1407" style="stop-color:#B04621"/>
			<stop  offset="0.2502" style="stop-color:#9D3D1C"/>
			<stop  offset="0.3716" style="stop-color:#8F3517"/>
			<stop  offset="0.5112" style="stop-color:#853013"/>
			<stop  offset="0.6852" style="stop-color:#7F2D10"/>
			<stop  offset="1" style="stop-color:#7E2C10"/>
		</linearGradient>
		<path id="XMLID_977_" style="fill:url(#XMLID_00000134211491029481729730000010673834067253891758_);" d="M142.9,58.1
			c0-1-0.4-1.9-0.9-2.6l0,0l-0.1-0.1l-0.1-0.1l0,0l-25.4-32.1H63.6L38.1,55.3c-0.6,0.7-1,1.7-1,2.7v0.1c0,1,0.4,1.9,0.9,2.7l0,0
			l25.6,32.3h52.7L141.9,61c0.6-0.7,1-1.7,1-2.7l0,0L142.9,58.1L142.9,58.1z M122.7,58.2l-22.4,28.4V29.8L122.7,58.2z M79.7,29.7
			v56.7L57.2,58.1L79.7,29.7z"/>
		
			<linearGradient id="XMLID_00000101071656933476798450000001496969260822852496_" gradientUnits="userSpaceOnUse" x1="82.2947" y1="-85.2502" x2="97.6829" y2="-10.4834" gradientTransform="matrix(1 0 0 1 0 106)">
			<stop  offset="0" style="stop-color:#F68B1F"/>
			<stop  offset="4.939743e-02" style="stop-color:#F58020"/>
			<stop  offset="0.1385" style="stop-color:#F37121"/>
			<stop  offset="0.2373" style="stop-color:#F26422"/>
			<stop  offset="0.3523" style="stop-color:#F15D22"/>
			<stop  offset="0.522" style="stop-color:#F15A22"/>
			<stop  offset="1" style="stop-color:#F15A22"/>
		</linearGradient>
		<path id="XMLID_973_" style="fill:url(#XMLID_00000101071656933476798450000001496969260822852496_);" d="M140.9,56.2l-25.1-31.7
			H64.2L39.1,56.2c-0.4,0.5-0.7,1.2-0.7,2s0.2,1.4,0.7,2l25.1,31.7h51.5l25.1-31.7c0.4-0.5,0.7-1.2,0.7-2
			C141.6,57.3,141.3,56.7,140.9,56.2z M80.4,88.4L56.3,58.2l24-30.4v60.6H80.4z M99.6,88.4V27.8l24,30.2L99.6,88.4z"/>
		
			<linearGradient id="XMLID_00000147923382508196247070000002803432621173262216_" gradientUnits="userSpaceOnUse" x1="125.3288" y1="-61.4019" x2="112.4486" y2="-63.7437" gradientTransform="matrix(1 0 0 1 0 106)">
			<stop  offset="0" style="stop-color:#FDC583"/>
			<stop  offset="0.4691" style="stop-color:#F89B4C"/>
			<stop  offset="0.8188" style="stop-color:#F5832A"/>
			<stop  offset="1" style="stop-color:#F47920"/>
		</linearGradient>
		<path id="XMLID_972_" style="fill:url(#XMLID_00000147923382508196247070000002803432621173262216_);" d="M102.8,27.7
			c-0.6-0.7-1.5-1.2-2.4-1.2l0,0l0,0c-0.2,0-0.5,0-0.6,0.1l0,0l-0.2,0.1l-0.2,0.1l0,0C99.2,27,99,27,98.7,27.2c-0.1,0.1-1.2,1-1,2.7
			c0,0.4,0.1,0.6,0.4,0.9v-0.9c0-1.1,0.7-2.1,1.7-2.4c0.2,0,0.4-0.1,0.6-0.1c0.7,0,1.4,0.4,1.7,0.9l23,29c0.2,0.2,0.4,0.6,0.4,1h0.9
			c0-0.5-0.1-1-0.5-1.5L102.8,27.7z"/>
		
			<linearGradient id="XMLID_00000093149381453184680100000009685557643406853561_" gradientUnits="userSpaceOnUse" x1="119.8649" y1="-30.977" x2="107.2196" y2="-33.2762" gradientTransform="matrix(1 0 0 1 0 106)">
			<stop  offset="0" style="stop-color:#FDC583"/>
			<stop  offset="0.4691" style="stop-color:#F89B4C"/>
			<stop  offset="0.8188" style="stop-color:#F5832A"/>
			<stop  offset="1" style="stop-color:#F47920"/>
		</linearGradient>
		<path id="XMLID_971_" style="fill:url(#XMLID_00000093149381453184680100000009685557643406853561_);" d="M125.2,59l-23,29
			c-0.4,0.5-1.1,0.9-1.7,0.9c0,0,0,0-0.1,0l-0.7,0.4c0,0,1.9,0.7,3.1-0.5l0.1-0.1l0,0l22.9-29c0.4-0.5,0.5-1,0.5-1.5h-0.9
			C125.5,58.4,125.3,58.8,125.2,59z"/>
		
			<linearGradient id="XMLID_00000155109332196019895930000001665506301593715854_" gradientUnits="userSpaceOnUse" x1="79.5958" y1="-75.3382" x2="81.7832" y2="-20.6518" gradientTransform="matrix(1 0 0 1 0 106)">
			<stop  offset="0" style="stop-color:#FEDBB4"/>
			<stop  offset="0.1484" style="stop-color:#FFD999"/>
			<stop  offset="0.2589" style="stop-color:#FECB85"/>
			<stop  offset="0.6104" style="stop-color:#F9A34D"/>
			<stop  offset="0.8671" style="stop-color:#F68B2A"/>
			<stop  offset="1" style="stop-color:#F58220"/>
		</linearGradient>
		<path id="XMLID_970_" style="fill:url(#XMLID_00000155109332196019895930000001665506301593715854_);" d="M80,88.9
			c0.2,0,0.5,0,0.6-0.1c1-0.4,1.7-1.2,1.7-2.4V29.8c0-0.9-0.5-1.7-1.1-2.1L80.7,27c0,0,1.9,0.2,2.5,1.9c0.1,0.4,0.1,0.6,0.1,1v56.6
			c0,1.5-1,2.7-2.2,3.2c-0.1,0-0.2,0.1-0.5,0.1c-1.4,0.1-2.2-1-2.4-1.2l0.4-0.2C78.8,88.7,79.4,88.9,80,88.9z"/>
		
			<linearGradient id="XMLID_00000014598101296461801760000016083036573809566634_" gradientUnits="userSpaceOnUse" x1="79.5257" y1="-16.0514" x2="55.2216" y2="-48.5749" gradientTransform="matrix(1 0 0 1 0 106)">
			<stop  offset="0" style="stop-color:#C74A1B"/>
			<stop  offset="1" style="stop-color:#A93512"/>
		</linearGradient>
		<path id="XMLID_969_" style="fill:url(#XMLID_00000014598101296461801760000016083036573809566634_);" d="M80.4,88.4L56.3,58.2h-2
			c0,0.4,0.1,0.9,0.4,1.2l22.9,29c0.5,0.7,1.2,1,2.1,1c0.2,0,0.5,0,0.7-0.1L80.4,88.4z"/>
		
			<linearGradient id="XMLID_00000031188475301953489080000007111542692206790069_" gradientUnits="userSpaceOnUse" x1="121.9621" y1="-53.0153" x2="101.2142" y2="-75.9096" gradientTransform="matrix(1 0 0 1 0 106)">
			<stop  offset="0" style="stop-color:#C74A1B"/>
			<stop  offset="0.2295" style="stop-color:#C14719"/>
			<stop  offset="0.5879" style="stop-color:#AF3D14"/>
			<stop  offset="1" style="stop-color:#952D09"/>
		</linearGradient>
		<path id="XMLID_968_" style="fill:url(#XMLID_00000031188475301953489080000007111542692206790069_);" d="M123.6,58.2h2
			c0-0.5-0.1-0.9-0.4-1.2l-22.9-29c-0.5-0.7-1.2-1-2.1-1c-0.2,0-0.5,0-0.7,0.1l0.1,0.7L123.6,58.2z"/>
		
			<linearGradient id="XMLID_00000001637483811184481360000015939317609390743964_" gradientUnits="userSpaceOnUse" x1="54.2954" y1="-63.5592" x2="80.5027" y2="-63.5592" gradientTransform="matrix(1 0 0 1 0 106)">
			<stop  offset="0" style="stop-color:#C74A1B"/>
			<stop  offset="0.2295" style="stop-color:#C14719"/>
			<stop  offset="0.5879" style="stop-color:#AF3D14"/>
			<stop  offset="1" style="stop-color:#952D09"/>
		</linearGradient>
		<path id="XMLID_967_" style="fill:url(#XMLID_00000001637483811184481360000015939317609390743964_);" d="M80.4,27.8l0.1-0.7
			c-0.2-0.1-0.5-0.2-0.9-0.2c-0.9,0-1.6,0.4-2.1,1l-22.9,29c-0.2,0.4-0.4,0.7-0.4,1.2h2.1L80.4,27.8z"/>
		
			<linearGradient id="XMLID_00000051374098986688332010000016967788780844365243_" gradientUnits="userSpaceOnUse" x1="81.4782" y1="-70.4087" x2="81.4782" y2="-17.4218" gradientTransform="matrix(1 0 0 1 0 106)">
			<stop  offset="0" style="stop-color:#FBB273"/>
			<stop  offset="0.3027" style="stop-color:#F79050"/>
			<stop  offset="0.6054" style="stop-color:#F47534"/>
			<stop  offset="0.8483" style="stop-color:#F26226"/>
			<stop  offset="1" style="stop-color:#F15A22"/>
		</linearGradient>
		<path id="XMLID_966_" style="fill:url(#XMLID_00000051374098986688332010000016967788780844365243_);" d="M80.5,27.1l-0.1,0.7
			v60.6l0.1,0.7c1.1-0.4,2-1.5,2-2.7V29.8C82.5,28.4,81.7,27.3,80.5,27.1z"/>
		
			<linearGradient id="XMLID_00000078030172253873002770000005372846550488336304_" gradientUnits="userSpaceOnUse" x1="63.2677" y1="-78.9575" x2="39.711" y2="-49.9323" gradientTransform="matrix(1 0 0 1 0 106)">
			<stop  offset="0" style="stop-color:#FBB273"/>
			<stop  offset="2.398354e-02" style="stop-color:#FAAF6F"/>
			<stop  offset="0.2134" style="stop-color:#F99E52"/>
			<stop  offset="0.4056" style="stop-color:#F7923B"/>
			<stop  offset="0.5996" style="stop-color:#F6892B"/>
			<stop  offset="0.7963" style="stop-color:#F58422"/>
			<stop  offset="1" style="stop-color:#F58220"/>
		</linearGradient>
		<path id="XMLID_965_" style="fill:url(#XMLID_00000078030172253873002770000005372846550488336304_);" d="M40.4,57.2L40.4,57.2
			L40.4,57.2L65,26.1l-1-2.2l-25.4,32c-0.5,0.6-0.7,1.5-0.9,2.4l0,0h2.1C40,57.8,40.1,57.4,40.4,57.2z"/>
		
			<linearGradient id="XMLID_00000121987749661558753390000016340530176691931053_" gradientUnits="userSpaceOnUse" x1="125.7175" y1="-47.8298" x2="99.423" y2="-16.8024" gradientTransform="matrix(1 0 0 1 0 106)">
			<stop  offset="0" style="stop-color:#FBB273"/>
			<stop  offset="8.001804e-03" style="stop-color:#FAB071"/>
			<stop  offset="0.1112" style="stop-color:#F9A158"/>
			<stop  offset="0.2234" style="stop-color:#F79642"/>
			<stop  offset="0.3491" style="stop-color:#F78D32"/>
			<stop  offset="0.4937" style="stop-color:#F68727"/>
			<stop  offset="0.6739" style="stop-color:#F58321"/>
			<stop  offset="1" style="stop-color:#F58220"/>
		</linearGradient>
		<path id="XMLID_964_" style="fill:url(#XMLID_00000121987749661558753390000016340530176691931053_);" d="M123.6,58.2l-24,30.2
			l-0.1,0.7c0.2,0.1,0.5,0.1,0.7,0.1c0.9,0,1.6-0.4,2.1-1l22.9-29c0.2-0.4,0.4-0.7,0.4-1.2L123.6,58.2L123.6,58.2z"/>
		
			<linearGradient id="XMLID_00000168830690539146101410000004622236097598845330_" gradientUnits="userSpaceOnUse" x1="98.5218" y1="-16.8445" x2="98.5218" y2="-79.0012" gradientTransform="matrix(1 0 0 1 0 106)">
			<stop  offset="0" style="stop-color:#C74A1B"/>
			<stop  offset="1" style="stop-color:#952D09"/>
		</linearGradient>
		<path id="XMLID_963_" style="fill:url(#XMLID_00000168830690539146101410000004622236097598845330_);" d="M99.6,88.4V27.8
			l-0.1-0.7c-1.1,0.4-2,1.5-2,2.7v56.6c0,1.4,0.9,2.4,2,2.7L99.6,88.4z"/>
		
			<linearGradient id="XMLID_00000078728372581124747210000011987383543818671008_" gradientUnits="userSpaceOnUse" x1="41.6179" y1="-43.5477" x2="58.9041" y2="-22.1943" gradientTransform="matrix(1 0 0 1 0 106)">
			<stop  offset="0" style="stop-color:#DA521F"/>
			<stop  offset="1" style="stop-color:#C6401B"/>
		</linearGradient>
		<path id="XMLID_962_" style="fill:url(#XMLID_00000078728372581124747210000011987383543818671008_);" d="M40.4,59L40.4,59
			c-0.2-0.2-0.4-0.5-0.4-0.9h-2.1l0,0c0,0.9,0.4,1.7,0.9,2.4l0,0l25.4,32l1-2.2L40.4,59L40.4,59z"/>
		
			<linearGradient id="XMLID_00000036209426817859371870000009064840434572030115_" gradientUnits="userSpaceOnUse" x1="76.4824" y1="-10.1063" x2="133.3134" y2="-32.8388" gradientTransform="matrix(1 0 0 1 0 106)">
			<stop  offset="0" style="stop-color:#A44118"/>
			<stop  offset="1" style="stop-color:#8C2904"/>
		</linearGradient>
		<path id="XMLID_961_" style="fill:url(#XMLID_00000036209426817859371870000009064840434572030115_);" d="M142.1,58.2L142.1,58.2
			H140c0,0.4-0.1,0.6-0.4,0.9l0,0l0,0L115,90.2l1,2.2l25.4-32C141.9,59.8,142.1,59,142.1,58.2z"/>
		
			<linearGradient id="XMLID_00000142871803978696227650000014619798204231352969_" gradientUnits="userSpaceOnUse" x1="115.4433" y1="-80.73" x2="138.1161" y2="-52.935" gradientTransform="matrix(1 0 0 1 0 106)">
			<stop  offset="0.1923" style="stop-color:#DA521F"/>
			<stop  offset="0.989" style="stop-color:#B34215"/>
		</linearGradient>
		<path id="XMLID_960_" style="fill:url(#XMLID_00000142871803978696227650000014619798204231352969_);" d="M141.4,55.7l-25.3-32
			l-1,2.2l24.6,31.1l0,0l0,0c0.1,0.2,0.4,0.6,0.4,0.9h2.1l0,0C142.1,57.2,141.9,56.3,141.4,55.7z"/>
		
			<linearGradient id="XMLID_00000088100718151162624040000018112910051971791549_" gradientUnits="userSpaceOnUse" x1="139.9492" y1="-49.3115" x2="139.9492" y2="-46.3885" gradientTransform="matrix(1 0 0 1 0 106)">
			<stop  offset="0.3535" style="stop-color:#B34215"/>
			<stop  offset="0.7767" style="stop-color:#8C2904"/>
		</linearGradient>
		<path id="XMLID_959_" style="fill:url(#XMLID_00000088100718151162624040000018112910051971791549_);" d="M142.1,58.2L142.1,58.2
			c0-0.9-0.4-1.7-0.9-2.4l-1.7-2.2l-1.7,1.5l1.9,2.2l0,0l0,0c0.1,0.2,0.4,0.6,0.4,0.9c0,0.4-0.1,0.6-0.4,0.9l0,0l-1.9,2.2l1.7,1.5
			l1.7-2.2C141.9,59.8,142.1,59,142.1,58.2z"/>
		
			<linearGradient id="XMLID_00000101085951799415031490000014731181447412738178_" gradientUnits="userSpaceOnUse" x1="-10223.9639" y1="-49.3114" x2="-10223.9639" y2="-46.3885" gradientTransform="matrix(-1 0 0 1 -10184.0371 106)">
			<stop  offset="0.3535" style="stop-color:#F58220"/>
			<stop  offset="0.7767" style="stop-color:#DA521F"/>
		</linearGradient>
		<path id="XMLID_958_" style="fill:url(#XMLID_00000101085951799415031490000014731181447412738178_);" d="M40.4,59L40.4,59
			c-0.2-0.2-0.4-0.5-0.4-0.9s0.1-0.6,0.4-0.9l0,0l0,0l1.7-2.2l-1.7-1.5l-1.7,2.2c-0.5,0.6-0.7,1.5-0.9,2.4l0,0l0,0l0,0
			c0,0.9,0.4,1.7,0.9,2.4l0,0l1.7,2.2l1.7-1.5L40.4,59z"/>
		
			<linearGradient id="XMLID_00000147931522829123061950000010954774974600452025_" gradientUnits="userSpaceOnUse" x1="61.4098" y1="-74.8892" x2="42.426" y2="-52.8434" gradientTransform="matrix(1 0 0 1 0 106)">
			<stop  offset="0" style="stop-color:#FEDBB4"/>
			<stop  offset="0.1484" style="stop-color:#FED095"/>
			<stop  offset="0.5024" style="stop-color:#FCBC6E"/>
			<stop  offset="0.8302" style="stop-color:#FBAC4B"/>
			<stop  offset="1" style="stop-color:#FAA63D"/>
		</linearGradient>
		<path id="XMLID_957_" style="fill:url(#XMLID_00000147931522829123061950000010954774974600452025_);" d="M39.9,56.8L39.9,56.8
			L39.9,56.8c-0.4,0.4-0.5,0.9-0.5,1.2h0.5c0-0.4,0.1-0.6,0.4-0.9l0,0l0,0l24.6-31.1l-0.2-0.6L39.9,56.8z"/>
		
			<linearGradient id="XMLID_00000116193228203351387260000006225023587034046849_" gradientUnits="userSpaceOnUse" x1="63.5779" y1="-81.0382" x2="116.3995" y2="-81.0382" gradientTransform="matrix(1 0 0 1 0 106)">
			<stop  offset="0" style="stop-color:#FBB273"/>
			<stop  offset="7.267498e-02" style="stop-color:#F9A764"/>
			<stop  offset="0.2141" style="stop-color:#F7964A"/>
			<stop  offset="0.3634" style="stop-color:#F68936"/>
			<stop  offset="0.5221" style="stop-color:#F58029"/>
			<stop  offset="0.6966" style="stop-color:#F47B22"/>
			<stop  offset="0.9176" style="stop-color:#F47920"/>
		</linearGradient>
		<polygon id="XMLID_956_" style="fill:url(#XMLID_00000116193228203351387260000006225023587034046849_);" points="115,26.1 
			116,23.8 64,23.8 65,26.1 		"/>
		
			<linearGradient id="XMLID_00000017485991154035626750000004642619537886036630_" gradientUnits="userSpaceOnUse" x1="112.1459" y1="-81.9049" x2="117.4492" y2="-78.689" gradientTransform="matrix(1 0 0 1 0 106)">
			<stop  offset="0.456" style="stop-color:#F47920"/>
			<stop  offset="0.6209" style="stop-color:#DA521F"/>
		</linearGradient>
		<polygon id="XMLID_955_" style="fill:url(#XMLID_00000017485991154035626750000004642619537886036630_);" points="115,26.1 
			117.5,29.2 119,27.4 116,23.8 111.1,23.8 111.1,26.1 		"/>
		
			<linearGradient id="XMLID_00000108996504259247655300000010801595920664189601_" gradientUnits="userSpaceOnUse" x1="75.4672" y1="-8.7175" x2="134.2754" y2="-32.2407" gradientTransform="matrix(1 0 0 1 0 106)">
			<stop  offset="0" style="stop-color:#B34215"/>
			<stop  offset="1" style="stop-color:#8C2904"/>
		</linearGradient>
		<polygon id="XMLID_954_" style="fill:url(#XMLID_00000108996504259247655300000010801595920664189601_);" points="65,90.2 
			64,92.4 116,92.4 115,90.2 		"/>
		
			<linearGradient id="XMLID_00000182516627614720347330000007818724824781483689_" gradientUnits="userSpaceOnUse" x1="1162.6321" y1="12642.583" x2="1167.936" y2="12645.7988" gradientTransform="matrix(-1 0 0 -1 1230.4688 12734.709)">
			<stop  offset="0.456" style="stop-color:#B34215"/>
			<stop  offset="0.6209" style="stop-color:#C6401B"/>
		</linearGradient>
		<polygon id="XMLID_953_" style="fill:url(#XMLID_00000182516627614720347330000007818724824781483689_);" points="65,90.2 
			62.5,87 61,88.8 64,92.4 68.9,92.4 68.9,90.2 		"/>
		
			<linearGradient id="XMLID_00000062184377381078622220000006636106331955693451_" gradientUnits="userSpaceOnUse" x1="40.5777" y1="-45.7072" x2="63.4842" y2="-18.1505" gradientTransform="matrix(1 0 0 1 0 106)">
			<stop  offset="0" style="stop-color:#FAA63D"/>
			<stop  offset="0.2309" style="stop-color:#F6852E"/>
			<stop  offset="0.4557" style="stop-color:#F26724"/>
			<stop  offset="0.5721" style="stop-color:#F15A22"/>
			<stop  offset="0.6946" style="stop-color:#EC5822"/>
			<stop  offset="0.812" style="stop-color:#E25220"/>
			<stop  offset="0.9268" style="stop-color:#D3481E"/>
			<stop  offset="1" style="stop-color:#C6401B"/>
		</linearGradient>
		<path id="XMLID_952_" style="fill:url(#XMLID_00000062184377381078622220000006636106331955693451_);" d="M39.9,59.4L39.9,59.4
			L39.9,59.4l24.9,31.4l0.2-0.6L40.4,59l0,0l0,0c-0.2-0.2-0.4-0.5-0.4-0.9h-0.5C39.5,58.6,39.6,59,39.9,59.4z"/>
		
			<linearGradient id="XMLID_00000044875170309522559770000006743326227914138805_" gradientUnits="userSpaceOnUse" x1="86.4199" y1="-87.6387" x2="94.0354" y2="-72.4075" gradientTransform="matrix(1 0 0 1 0 106)">
			<stop  offset="0" style="stop-color:#FEDBB4"/>
			<stop  offset="0.1484" style="stop-color:#FED095"/>
			<stop  offset="0.2589" style="stop-color:#FDC282"/>
			<stop  offset="0.6104" style="stop-color:#F8994C"/>
			<stop  offset="0.8671" style="stop-color:#F5822A"/>
			<stop  offset="1" style="stop-color:#F47920"/>
		</linearGradient>
		<polygon id="XMLID_951_" style="fill:url(#XMLID_00000044875170309522559770000006743326227914138805_);" points="115,26.1 
			115.3,25.5 64.7,25.5 64.7,25.5 65,26.1 65,26.1 		"/>
	</g>
</g>
<g id="XMLID_106_">
	<g id="XMLID_903_">
		<path id="XMLID_948_" class="st24" d="M27.9,150.8v1.6h-3.1v8.4H23v-8.4h-3v-1.6H27.9z"/>
		<path id="XMLID_945_" class="st24" d="M31.4,153.1c0.6,0,1.1,0.1,1.4,0.2c0.4,0.1,0.7,0.4,0.9,0.6c0.2,0.2,0.4,0.6,0.5,0.9
			c0.1,0.4,0.1,0.8,0.1,1.2v4.6c-0.3,0-0.7,0.1-1.2,0.2c-0.5,0.1-1.2,0.1-1.8,0.1c-0.5,0-0.9,0-1.2-0.1c-0.4-0.1-0.7-0.2-0.9-0.4
			s-0.5-0.4-0.6-0.7s-0.2-0.7-0.2-1.1s0.1-0.8,0.2-1.1c0.2-0.3,0.4-0.5,0.7-0.7c0.3-0.2,0.6-0.3,1-0.4c0.4-0.1,0.8-0.1,1.2-0.1
			c0.2,0,0.4,0,0.6,0c0.2,0,0.4,0.1,0.7,0.1v-0.3c0-0.2,0-0.4-0.1-0.6c0-0.2-0.1-0.4-0.2-0.5c-0.1-0.1-0.3-0.2-0.5-0.3
			s-0.5-0.1-0.7-0.1c-0.4,0-0.8,0-1.1,0.1c-0.3,0.1-0.6,0.1-0.8,0.2l-0.2-1.4c0.2-0.1,0.5-0.1,0.9-0.2
			C30.5,153.1,31,153.1,31.4,153.1z M31.6,159.6c0.5,0,0.9,0,1.2-0.1v-1.9c-0.1,0-0.2-0.1-0.4-0.1s-0.4,0-0.6,0s-0.4,0-0.6,0
			s-0.4,0.1-0.5,0.1c-0.1,0.1-0.3,0.2-0.4,0.3s-0.1,0.3-0.1,0.5c0,0.4,0.1,0.7,0.4,0.8C30.8,159.5,31.1,159.6,31.6,159.6z"/>
		<path id="XMLID_942_" class="st24" d="M38.3,151.1c0,0.3-0.1,0.6-0.3,0.8s-0.5,0.3-0.7,0.3c-0.3,0-0.6-0.1-0.8-0.3
			s-0.3-0.5-0.3-0.8s0.1-0.6,0.3-0.8s0.5-0.3,0.8-0.3s0.5,0.1,0.7,0.3S38.3,150.8,38.3,151.1z M38.1,160.8h-1.8v-7.5h1.8V160.8z"/>
		<path id="XMLID_940_" class="st24" d="M44.5,156.1c-0.2,0.8-0.5,1.7-0.7,2.5s-0.5,1.5-0.8,2.3h-1.4c-0.2-0.5-0.4-0.9-0.6-1.5
			c-0.2-0.6-0.4-1.2-0.6-1.8c-0.2-0.6-0.4-1.3-0.6-2c-0.2-0.7-0.4-1.4-0.6-2.2H41c0.1,0.4,0.2,0.8,0.3,1.3s0.2,0.9,0.4,1.4
			c0.1,0.5,0.2,0.9,0.4,1.4c0.1,0.5,0.3,0.9,0.4,1.3c0.1-0.5,0.3-0.9,0.4-1.4c0.1-0.5,0.3-0.9,0.4-1.4c0.1-0.5,0.2-0.9,0.4-1.4
			c0.1-0.5,0.2-0.9,0.3-1.3h1.3c0.1,0.4,0.2,0.8,0.3,1.3s0.2,0.9,0.4,1.4c0.1,0.5,0.2,0.9,0.4,1.4c0.1,0.5,0.3,0.9,0.4,1.4
			c0.1-0.4,0.2-0.8,0.4-1.3c0.1-0.5,0.3-0.9,0.4-1.4c0.1-0.5,0.2-0.9,0.4-1.4c0.1-0.5,0.2-0.9,0.3-1.3h1.8c-0.2,0.7-0.4,1.5-0.6,2.2
			c-0.2,0.7-0.4,1.4-0.6,2c-0.2,0.6-0.4,1.2-0.6,1.8c-0.2,0.6-0.4,1.1-0.6,1.5h-1.4c-0.2-0.7-0.5-1.5-0.8-2.3
			C45,157.8,44.7,156.9,44.5,156.1z"/>
		<path id="XMLID_937_" class="st24" d="M53.5,153.1c0.6,0,1.1,0.1,1.4,0.2c0.4,0.1,0.7,0.4,0.9,0.6c0.2,0.2,0.4,0.6,0.5,0.9
			c0.1,0.4,0.1,0.8,0.1,1.2v4.6c-0.3,0-0.7,0.1-1.2,0.2c-0.5,0.1-1.2,0.1-1.8,0.1c-0.5,0-0.9,0-1.2-0.1c-0.4-0.1-0.7-0.2-0.9-0.4
			s-0.5-0.4-0.6-0.7s-0.2-0.7-0.2-1.1s0.1-0.8,0.2-1.1c0.2-0.3,0.4-0.5,0.7-0.7s0.6-0.3,1-0.4c0.4-0.1,0.8-0.1,1.2-0.1
			c0.2,0,0.4,0,0.6,0c0.2,0,0.4,0.1,0.7,0.1v-0.3c0-0.2,0-0.4-0.1-0.6c0-0.2-0.1-0.4-0.2-0.5c-0.1-0.1-0.3-0.2-0.5-0.3
			s-0.5-0.1-0.7-0.1c-0.4,0-0.8,0-1.1,0.1c-0.4,0.1-0.6,0.1-0.8,0.2l-0.2-1.4c0.2-0.1,0.5-0.1,0.9-0.2
			C52.6,153.1,53,153.1,53.5,153.1z M53.6,159.6c0.5,0,0.9,0,1.2-0.1v-1.9c-0.1,0-0.2-0.1-0.4-0.1s-0.4,0-0.6,0c-0.2,0-0.4,0-0.6,0
			c-0.2,0-0.4,0.1-0.5,0.1c-0.1,0.1-0.3,0.2-0.4,0.3c-0.1,0.1-0.1,0.3-0.1,0.5c0,0.4,0.1,0.7,0.4,0.8
			C52.8,159.5,53.2,159.6,53.6,159.6z"/>
		<path id="XMLID_935_" class="st24" d="M58.4,153.5c0.4-0.1,0.8-0.2,1.3-0.3s1.1-0.1,1.8-0.1c0.6,0,1.1,0.1,1.5,0.2
			c0.4,0.2,0.7,0.4,1,0.7c0.2,0.3,0.4,0.7,0.5,1.1c0.1,0.4,0.1,0.9,0.1,1.4v4.3H63v-4c0-0.4,0-0.7-0.1-1.1c-0.1-0.3-0.1-0.5-0.2-0.7
			c-0.1-0.2-0.3-0.3-0.5-0.4c-0.2-0.1-0.5-0.1-0.7-0.1s-0.5,0-0.7,0s-0.4,0.1-0.5,0.1v6.1h-1.8L58.4,153.5L58.4,153.5z"/>
		<path id="XMLID_931_" class="st24" d="M72.7,160.9c-0.5,0-1.1,0-1.6-0.1c-0.5,0-1-0.1-1.4-0.2v-9.7c0.2,0,0.4-0.1,0.7-0.1
			s0.5-0.1,0.7-0.1s0.5,0,0.7,0s0.5,0,0.7,0c0.6,0,1.2,0,1.7,0.1s0.9,0.2,1.3,0.5c0.4,0.2,0.7,0.5,0.9,0.8c0.2,0.4,0.3,0.8,0.3,1.3
			s-0.1,0.9-0.4,1.2c-0.2,0.4-0.5,0.6-0.9,0.8c0.6,0.2,1.1,0.5,1.3,0.9c0.3,0.4,0.4,0.9,0.4,1.5c0,1-0.4,1.8-1.1,2.3
			C75.4,160.7,74.3,160.9,72.7,160.9z M71.5,154.9h1.3c0.7,0,1.2-0.1,1.6-0.3s0.6-0.6,0.6-1.1s-0.2-0.8-0.6-1s-0.9-0.3-1.6-0.3
			c-0.3,0-0.5,0-0.7,0s-0.4,0-0.6,0C71.5,152.2,71.5,154.9,71.5,154.9z M71.5,156.3v3c0.2,0,0.4,0,0.6,0s0.5,0,0.6,0
			c0.4,0,0.7,0,1.1-0.1c0.3,0,0.6-0.1,0.8-0.2c0.2-0.1,0.4-0.3,0.6-0.5c0.1-0.2,0.2-0.5,0.2-0.8c0-0.6-0.2-0.9-0.6-1.2
			c-0.4-0.2-1-0.3-1.7-0.3L71.5,156.3L71.5,156.3z"/>
		<path id="XMLID_929_" class="st24" d="M85,160.6c-0.4,0.1-0.8,0.2-1.3,0.3s-1.1,0.1-1.8,0.1c-0.6,0-1.1-0.1-1.5-0.2
			c-0.4-0.2-0.7-0.4-1-0.7s-0.4-0.7-0.5-1.1c-0.1-0.4-0.2-0.9-0.2-1.4v-4.2h1.8v3.9c0,0.8,0.1,1.4,0.4,1.7c0.2,0.4,0.6,0.5,1.2,0.5
			c0.2,0,0.4,0,0.7,0c0.2,0,0.4,0,0.5-0.1v-6.1H85V160.6L85,160.6z"/>
		<path id="XMLID_927_" class="st24" d="M88.8,159.6c0.5,0,0.8-0.1,1-0.2c0.2-0.1,0.3-0.3,0.3-0.6c0-0.2-0.1-0.5-0.4-0.6
			c-0.2-0.2-0.6-0.4-1.1-0.5c-0.3-0.1-0.6-0.2-0.9-0.4c-0.3-0.1-0.5-0.3-0.7-0.5s-0.4-0.4-0.5-0.6c-0.1-0.2-0.2-0.5-0.2-0.9
			c0-0.7,0.2-1.2,0.8-1.7c0.5-0.4,1.2-0.6,2.1-0.6c0.5,0,0.9,0,1.3,0.1s0.7,0.1,0.9,0.2l-0.3,1.4c-0.2-0.1-0.4-0.2-0.7-0.2
			c-0.3-0.1-0.6-0.1-1-0.1s-0.6,0.1-0.9,0.2c-0.2,0.1-0.3,0.3-0.3,0.6c0,0.1,0,0.2,0.1,0.3c0,0.1,0.1,0.2,0.2,0.3s0.2,0.2,0.4,0.2
			c0.2,0.1,0.4,0.2,0.6,0.2c0.4,0.1,0.8,0.3,1.1,0.5s0.5,0.3,0.7,0.5s0.3,0.4,0.4,0.6c0.1,0.2,0.1,0.5,0.1,0.9
			c0,0.7-0.3,1.3-0.8,1.6c-0.5,0.4-1.3,0.6-2.3,0.6c-0.7,0-1.2-0.1-1.6-0.2c-0.4-0.1-0.7-0.2-0.8-0.3l0.3-1.5
			c0.3,0.1,0.6,0.2,0.9,0.3C87.9,159.5,88.3,159.6,88.8,159.6z"/>
		<path id="XMLID_924_" class="st24" d="M95.2,151.1c0,0.3-0.1,0.6-0.3,0.8c-0.2,0.2-0.5,0.3-0.7,0.3c-0.3,0-0.6-0.1-0.8-0.3
			c-0.2-0.2-0.3-0.5-0.3-0.8s0.1-0.6,0.3-0.8c0.2-0.2,0.5-0.3,0.8-0.3s0.5,0.1,0.7,0.3C95,150.5,95.2,150.8,95.2,151.1z M94.9,160.8
			h-1.8v-7.5h1.8V160.8z"/>
		<path id="XMLID_922_" class="st24" d="M96.9,153.5c0.4-0.1,0.8-0.2,1.3-0.3s1.1-0.1,1.8-0.1c0.6,0,1.1,0.1,1.5,0.2
			c0.4,0.2,0.7,0.4,1,0.7c0.2,0.3,0.4,0.7,0.5,1.1c0.1,0.4,0.1,0.9,0.1,1.4v4.3h-1.8v-4c0-0.4,0-0.7-0.1-1.1
			c-0.1-0.3-0.1-0.5-0.2-0.7s-0.3-0.3-0.5-0.4c-0.2-0.1-0.5-0.1-0.7-0.1s-0.5,0-0.7,0s-0.4,0.1-0.5,0.1v6.1h-1.8L96.9,153.5
			L96.9,153.5z"/>
		<path id="XMLID_919_" class="st24" d="M104.6,157.1c0-0.7,0.1-1.2,0.3-1.8c0.2-0.5,0.5-0.9,0.8-1.2s0.7-0.6,1.1-0.7
			c0.4-0.2,0.8-0.2,1.3-0.2c1.1,0,1.9,0.3,2.4,0.9c0.6,0.6,0.9,1.6,0.9,2.9c0,0.1,0,0.2,0,0.3s0,0.2,0,0.3h-5c0,0.6,0.2,1.1,0.6,1.4
			c0.4,0.4,0.9,0.5,1.7,0.5c0.4,0,0.8,0,1.2-0.1c0.4-0.1,0.6-0.1,0.8-0.2l0.2,1.4c-0.1,0-0.2,0.1-0.4,0.1c-0.2,0.1-0.4,0.1-0.6,0.1
			s-0.5,0.1-0.7,0.1s-0.5,0-0.8,0c-0.7,0-1.2-0.1-1.7-0.3s-0.9-0.5-1.2-0.8c-0.3-0.4-0.6-0.8-0.7-1.2
			C104.7,158.2,104.6,157.7,104.6,157.1z M109.7,156.3c0-0.2,0-0.5-0.1-0.7s-0.2-0.4-0.3-0.6c-0.1-0.2-0.3-0.3-0.5-0.4
			c-0.2-0.1-0.4-0.1-0.7-0.1c-0.3,0-0.5,0-0.7,0.1s-0.4,0.2-0.5,0.4s-0.2,0.4-0.3,0.6c-0.1,0.2-0.1,0.4-0.1,0.6L109.7,156.3
			L109.7,156.3z"/>
		<path id="XMLID_917_" class="st24" d="M114.9,159.6c0.5,0,0.8-0.1,1-0.2c0.2-0.1,0.3-0.3,0.3-0.6c0-0.2-0.1-0.5-0.4-0.6
			c-0.2-0.2-0.6-0.4-1.1-0.5c-0.3-0.1-0.6-0.2-0.9-0.4c-0.3-0.1-0.5-0.3-0.7-0.5s-0.4-0.4-0.5-0.6c-0.1-0.2-0.2-0.5-0.2-0.9
			c0-0.7,0.2-1.2,0.8-1.7c0.5-0.4,1.2-0.6,2.1-0.6c0.5,0,0.9,0,1.3,0.1s0.7,0.1,0.9,0.2l-0.3,1.4c-0.2-0.1-0.4-0.2-0.7-0.2
			c-0.3-0.1-0.6-0.1-1-0.1s-0.6,0.1-0.9,0.2c-0.2,0.1-0.3,0.3-0.3,0.6c0,0.1,0,0.2,0.1,0.3c0,0.1,0.1,0.2,0.2,0.3s0.2,0.2,0.4,0.2
			c0.2,0.1,0.4,0.2,0.6,0.2c0.4,0.1,0.8,0.3,1.1,0.5s0.5,0.3,0.7,0.5s0.3,0.4,0.4,0.6c0.1,0.2,0.1,0.5,0.1,0.9
			c0,0.7-0.3,1.3-0.8,1.6c-0.5,0.4-1.3,0.6-2.3,0.6c-0.7,0-1.2-0.1-1.6-0.2c-0.4-0.1-0.7-0.2-0.8-0.3l0.3-1.5
			c0.2,0.1,0.6,0.2,0.9,0.3C114,159.5,114.4,159.6,114.9,159.6z"/>
		<path id="XMLID_915_" class="st24" d="M121.2,159.6c0.5,0,0.8-0.1,1-0.2c0.2-0.1,0.3-0.3,0.3-0.6c0-0.2-0.1-0.5-0.4-0.6
			c-0.2-0.2-0.6-0.4-1.1-0.5c-0.3-0.1-0.6-0.2-0.9-0.4c-0.2-0.1-0.5-0.3-0.7-0.5s-0.4-0.4-0.5-0.6c-0.1-0.2-0.2-0.5-0.2-0.9
			c0-0.7,0.2-1.2,0.8-1.7c0.5-0.4,1.2-0.6,2.1-0.6c0.5,0,0.9,0,1.3,0.1s0.7,0.1,0.9,0.2l-0.3,1.4c-0.2-0.1-0.4-0.2-0.7-0.2
			c-0.3-0.1-0.6-0.1-1-0.1s-0.6,0.1-0.9,0.2c-0.2,0.1-0.3,0.3-0.3,0.6c0,0.1,0,0.2,0.1,0.3c0,0.1,0.1,0.2,0.2,0.3s0.2,0.2,0.4,0.2
			c0.2,0.1,0.4,0.2,0.6,0.2c0.4,0.1,0.8,0.3,1.1,0.5s0.5,0.3,0.7,0.5s0.3,0.4,0.4,0.6c0.1,0.2,0.1,0.5,0.1,0.9
			c0,0.7-0.3,1.3-0.8,1.6c-0.5,0.4-1.3,0.6-2.3,0.6c-0.7,0-1.2-0.1-1.6-0.2c-0.4-0.1-0.7-0.2-0.8-0.3l0.3-1.5
			c0.2,0.1,0.6,0.2,0.9,0.3C120.3,159.5,120.7,159.6,121.2,159.6z"/>
		<path id="XMLID_911_" class="st24" d="M131.7,160.9c-0.5,0-1.1,0-1.6-0.1c-0.5,0-1-0.1-1.4-0.2v-9.7c0.2,0,0.5-0.1,0.7-0.1
			s0.5-0.1,0.7-0.1s0.5,0,0.7,0s0.5,0,0.7,0c0.6,0,1.2,0,1.7,0.1s0.9,0.2,1.3,0.5c0.4,0.2,0.7,0.5,0.9,0.8c0.2,0.4,0.3,0.8,0.3,1.3
			s-0.1,0.9-0.4,1.2c-0.2,0.4-0.5,0.6-0.9,0.8c0.6,0.2,1.1,0.5,1.3,0.9c0.3,0.4,0.4,0.9,0.4,1.5c0,1-0.4,1.8-1.1,2.3
			C134.4,160.7,133.3,160.9,131.7,160.9z M130.5,154.9h1.3c0.7,0,1.2-0.1,1.6-0.3c0.4-0.2,0.6-0.6,0.6-1.1s-0.2-0.8-0.6-1
			s-0.9-0.3-1.6-0.3c-0.3,0-0.5,0-0.7,0s-0.4,0-0.6,0V154.9L130.5,154.9z M130.5,156.3v3c0.2,0,0.4,0,0.6,0c0.2,0,0.4,0,0.6,0
			c0.4,0,0.7,0,1.1-0.1c0.3,0,0.6-0.1,0.8-0.2c0.2-0.1,0.4-0.3,0.6-0.5c0.1-0.2,0.2-0.5,0.2-0.8c0-0.6-0.2-0.9-0.6-1.2
			c-0.4-0.2-1-0.3-1.7-0.3L130.5,156.3L130.5,156.3z"/>
		<path id="XMLID_908_" class="st24" d="M140.3,153.1c0.6,0,1.1,0.1,1.4,0.2c0.4,0.1,0.7,0.4,0.9,0.6c0.2,0.2,0.4,0.6,0.5,0.9
			c0.1,0.4,0.1,0.8,0.1,1.2v4.6c-0.3,0-0.7,0.1-1.2,0.2c-0.5,0.1-1.2,0.1-1.8,0.1c-0.5,0-0.9,0-1.2-0.1c-0.4-0.1-0.7-0.2-0.9-0.4
			s-0.5-0.4-0.6-0.7s-0.2-0.7-0.2-1.1s0.1-0.8,0.2-1.1c0.2-0.3,0.4-0.5,0.7-0.7s0.6-0.3,1-0.4c0.4-0.1,0.8-0.1,1.2-0.1
			c0.2,0,0.4,0,0.6,0c0.2,0,0.5,0.1,0.7,0.1v-0.3c0-0.2,0-0.4-0.1-0.6c0-0.2-0.1-0.4-0.2-0.5c-0.1-0.1-0.3-0.2-0.5-0.3
			s-0.5-0.1-0.7-0.1c-0.4,0-0.8,0-1.1,0.1c-0.4,0.1-0.6,0.1-0.8,0.2l-0.2-1.4c0.2-0.1,0.5-0.1,1-0.2
			C139.4,153.1,139.9,153.1,140.3,153.1z M140.5,159.6c0.5,0,0.9,0,1.2-0.1v-1.9c-0.1,0-0.2-0.1-0.4-0.1s-0.4,0-0.6,0
			c-0.2,0-0.4,0-0.6,0c-0.2,0-0.4,0.1-0.5,0.1c-0.2,0.1-0.3,0.2-0.4,0.3c-0.1,0.1-0.1,0.3-0.1,0.5c0,0.4,0.1,0.7,0.4,0.8
			C139.7,159.5,140,159.6,140.5,159.6z"/>
		<path id="XMLID_906_" class="st24" d="M145.2,153.5c0.3-0.1,0.8-0.2,1.3-0.3s1.1-0.1,1.8-0.1c0.6,0,1.1,0.1,1.5,0.2
			c0.4,0.2,0.7,0.4,1,0.7c0.2,0.3,0.4,0.7,0.5,1.1c0.1,0.4,0.1,0.9,0.1,1.4v4.3h-1.8v-4c0-0.4,0-0.7-0.1-1.1
			c-0.1-0.3-0.1-0.5-0.2-0.7s-0.3-0.3-0.5-0.4c-0.2-0.1-0.5-0.1-0.8-0.1c-0.2,0-0.5,0-0.7,0s-0.4,0.1-0.5,0.1v6.1H145L145.2,153.5
			L145.2,153.5z"/>
		<path id="XMLID_904_" class="st24" d="M155.1,156.2l2.7-3h2.1l-3.1,3.3l3.3,4.2h-2l-2.9-3.4v3.4h-1.8v-10.9l1.8-0.3L155.1,156.2
			L155.1,156.2z"/>
	</g>
	<g id="XMLID_107_">
		<path id="XMLID_896_" class="st24" d="M33.8,119H23.5v1.7h24.2c0.4,0,0.7-0.3,0.7-0.6V119H38v-1.4h11.4c0.4,0,0.7-0.3,0.7-0.6
			v-1.2H38v-1.6h-4.2v1.6H21.7v1.8h12.1L33.8,119L33.8,119z M38,139.5h9.6c0.4,0,0.7-0.3,0.7-0.6v-1.1H38v-1.2h6.7
			c1.3,0,2.3-0.9,2.3-2.1v-0.9h-4.2v0.8c0,0.3-0.2,0.5-0.6,0.5H28.9l2.1-2.4h15.3c0.4,0,0.7-0.3,0.7-0.6v-1.1H24.8v1.7h1.9l-1.7,1.9
			c-0.2,0.2-0.3,0.5-0.3,0.8c0,0.7,0.6,1.3,1.4,1.3h7.7v1.2H23.5v1.7h10.3v1.2H20v2.1h31.2c0.4,0,0.7-0.3,0.7-0.6v-1.5H38V139.5z
			 M47.6,121.8H24.2c-0.4,0-0.6,0.2-0.7,0.5v4.6H46c1.3,0,2.3-0.9,2.3-2.1v-2.3C48.3,122.1,48,121.8,47.6,121.8z M44.8,124.8
			c0,0.3-0.2,0.5-0.6,0.5H26.9v-2h17.9V124.8z M49.5,128H20.6c-0.4,0-0.7,0.3-0.7,0.6v4.5h3.4v-3.4h24.4c0.3,0,0.6,0.2,0.6,0.5v2.9
			h3.5v-3C51.8,129,50.8,128,49.5,128z"/>
		<path id="XMLID_882_" class="st24" d="M62.6,121.5l-2.1-6.1c-0.1-0.2-0.4-0.4-0.7-0.4h-2.9l2.3,6.5H62.6L62.6,121.5z M80.3,117.1
			V116h-2.7v-1.8h-3.1v1.8h-2.7v1.8h7.9C80,117.7,80.3,117.5,80.3,117.1z M79.7,119.8v-1h-7.2v1.6H79
			C79.4,120.4,79.7,120.2,79.7,119.8z M72.4,123.2h6.5c0.4,0,0.7-0.3,0.7-0.6v-1h-7.2V123.2L72.4,123.2z M72.4,130.4h5.1
			c1.3,0,2.3-0.9,2.3-1.9V125c0-0.3-0.3-0.6-0.7-0.6h-6c-0.4,0-0.6,0.2-0.7,0.5C72.4,124.9,72.4,130.4,72.4,130.4z M74.9,125.7h2.4
			v2.8c0,0.2-0.2,0.5-0.6,0.5h-1.8V125.7z M63.2,123.9c0,0.6,0.6,1.2,1.3,1.2h1.8v5.4h2.4v-2.3l2.5,0.9v-1.5c0-0.2-0.2-0.5-0.4-0.6
			l-2-0.8V125h0.4c1.3,0,2.5-0.9,2.5-2.1v-1.1h-2.8v1.1c0,0.3-0.3,0.5-0.6,0.5h-1.7l3.9-5v-0.1c0-0.1-0.1-0.2-0.2-0.2h-3.4l3-3.9H67
			c-0.2,0-0.5,0.1-0.6,0.3l-2.8,3.7c-0.1,0.2-0.2,0.4-0.2,0.6c0,0.6,0.6,1.2,1.3,1.2H66l-2.5,3.2C63.3,123.4,63.2,123.6,63.2,123.9z
			 M60.4,124c-0.1-0.2-0.4-0.5-0.7-0.5h-2.9l3.4,9.6l-3.4,9.6h2.9c0.3,0,0.6-0.2,0.7-0.5l3-8.4c0.1-0.2,0.1-0.5,0.1-0.8
			s0-0.6-0.1-0.8L60.4,124z M86.3,137.6H68.1l0.4-1.4h16.6c1.2,0,2.3-0.9,2.3-1.9V132c0-0.3-0.3-0.6-0.7-0.6H65.1v1.8h18.5v0.8
			c0,0.2-0.2,0.5-0.6,0.5H65.7c-0.3,0-0.6,0.2-0.7,0.4l-0.8,2.8c0,0.1,0,0.2,0,0.3c0,0.6,0.6,1.1,1.3,1.2l0,0H84l-0.3,1.4
			c0,0.2-0.3,0.4-0.6,0.4H68.5l0.1,1.2c0,0.4,0.4,0.6,0.8,0.6h15.7c1.2,0,2.1-0.7,2.3-1.7l0.4-2.1c0-0.1,0-0.2,0-0.3
			C87.7,138.1,87.1,137.6,86.3,137.6z M65.3,129.6c0.2-0.7,0.4-1.9,0.4-3.6h-1.9c-0.1,1.8-0.2,2.8-0.6,4.1h1.4
			C64.9,130,65.2,129.8,65.3,129.6z M86.5,125c1.3,0,2.5-0.9,2.5-2.1v-1.1h-2.8v1.1c0,0.3-0.3,0.5-0.6,0.5h-1.7l3.9-5v-0.1
			c0-0.1-0.1-0.2-0.2-0.2h-3.4l3-3.9h-2.8c-0.2,0-0.5,0.1-0.6,0.3l-2.8,3.7c-0.1,0.2-0.2,0.4-0.2,0.6c0,0.6,0.6,1.2,1.3,1.2h1.3
			l-2.5,3.2c-0.1,0.2-0.2,0.4-0.2,0.6c0,0.6,0.6,1.2,1.3,1.2h1.8v5.4h2.4v-2.3l2.5,0.9v-1.5c0-0.2-0.2-0.5-0.4-0.6l-2-0.8V125H86.5
			L86.5,125z M82.6,129.6c0.1-0.7,0.4-1.9,0.4-3.6h-1.9c-0.1,1.8-0.2,2.8-0.6,4.1h1.4C82.3,130,82.6,129.8,82.6,129.6z"/>
		<path id="XMLID_879_" class="st24" d="M111.7,131.7h10.6c0.4,0,0.7-0.3,0.7-0.6v-1.8h-11.2v-8.9H108v20.1h-7.7
			c-0.3,0-0.6-0.2-0.6-0.5v-11.3h-3.6v12.1c0,1.2,1.1,2.1,2.3,2.1h24.9c0.4,0,0.7-0.3,0.7-0.6v-1.7h-12.4L111.7,131.7L111.7,131.7z
			 M99.5,124.3c1.9-2,3.5-4.9,4.5-7h11.2l4,6.7c0.3,0.5,0.8,0.7,1.5,0.7h3.6l-5.7-9.2c-0.3-0.5-0.8-0.7-1.5-0.7h-15.4
			c-0.6,0-1.1,0.4-1.3,0.8c-2.6,5.3-6.2,9.2-6.2,9.2h4.4C98.9,124.7,99.3,124.5,99.5,124.3z"/>
		<path id="XMLID_114_" class="st24" d="M138.3,124.7h3.3c0.4,0,0.6-0.3,0.6-0.6v-1.5h-10.6v2.1h3.4v3.7h-4.3v2.1h4.3v10.2h-1
			c-0.3,0-0.6-0.2-0.6-0.5V133h-2.7v7.8c0,1.2,1.1,2.1,2.3,2.1h9.2c0.4,0,0.6-0.3,0.6-0.6v-1.5h-4.6v-10.2h4c0.4,0,0.6-0.3,0.6-0.6
			v-1.5h-4.6L138.3,124.7L138.3,124.7z M139.5,139.4h2.1c0.3,0,0.5-0.2,0.6-0.5l0.3-6.9h-2.6L139.5,139.4z M140.7,114.2H134
			c-0.6,0-0.9,0.4-1.1,0.8c-1.3,4-3.1,6.3-3.1,6.3h3.1c0.4,0,0.7-0.2,0.9-0.4c1.1-1.5,1.7-3.2,2-4.5h2.8l1.1,4.1
			c0.1,0.5,0.5,0.8,1,0.8h2.5l-1.6-6.3C141.7,114.6,141.2,114.2,140.7,114.2z M147.9,140v-10.8h8.5c1.2,0,2.3-0.9,2.3-2.1v-11.7
			c0-0.4-0.3-0.6-0.7-0.6h-12.7c-0.4,0-0.6,0.2-0.7,0.5v25.2c0,1.3,1.1,2.4,2.5,2.4h2.2c0.5,0,0.9-0.4,1-0.9l0.1-1.3h-2.1
			C148.2,140.6,147.9,140.4,147.9,140z M147.9,123.1h5.6c0.4,0,0.6-0.3,0.6-0.6v-1.7h-6.2v-3.9h7.6v9.7c0,0.3-0.2,0.5-0.6,0.5h-7
			L147.9,123.1L147.9,123.1z M153.8,136.2l5-5.3h-3.7c-0.4,0-0.8,0.2-1.1,0.5l-3.9,4.2c-0.2,0.2-0.3,0.5-0.3,0.7s0.1,0.5,0.3,0.7
			l5.2,5.4c0.3,0.3,0.7,0.5,1.1,0.5h3.7L153.8,136.2z"/>
	</g>
</g>
</svg>
