<svg width="251" height="58" viewBox="0 0 251 58" fill="none" xmlns="http://www.w3.org/2000/svg">
<g clip-path="url(#clip0)">
<path d="M87.3221 29C87.3221 28.1815 87.0888 27.4214 86.6221 26.7782L86.5638 26.6613L86.5055 26.6028L65.4478 0H21.8743L0.816639 26.6613C0.291657 27.3044 0 28.123 0 28.9415V29C0 29.8186 0.291657 30.5786 0.699977 31.2218L21.8743 58H65.4478L86.5638 31.3387C87.0304 30.6956 87.3221 29.877 87.3221 29ZM70.756 29L52.1483 52.504V5.49597L70.756 29ZM35.1738 5.49597V52.4456L16.5661 29L35.1738 5.49597Z" fill="url(#paint0_linear)"/>
<path d="M85.6889 27.3629L64.923 1.11084H22.341L1.63338 27.3629C1.28339 27.7721 1.1084 28.3568 1.1084 29C1.1084 29.6431 1.34172 30.1693 1.63338 30.6371L22.3994 56.8891H64.9813L85.7473 30.6371C86.0973 30.2278 86.2722 29.6431 86.2722 29C86.2722 28.3568 86.0389 27.8306 85.6889 27.3629ZM35.6989 54.1411L15.8662 29L35.6989 3.91729V54.1411ZM51.6234 54.1411V3.91729L71.4561 29.0584L51.6234 54.1411Z" fill="url(#paint1_linear)"/>
<path d="M54.3065 3.80059C53.8398 3.15745 53.0815 2.80664 52.3232 2.80664C52.1482 2.80664 51.9732 2.80664 51.7982 2.86511L51.5649 2.92358L51.3899 2.98204C51.2149 3.04051 51.0399 3.15745 50.9232 3.27438C50.8066 3.33285 49.9316 4.09293 50.0483 5.61309C50.0483 5.90543 50.2233 6.1393 50.3983 6.31471V5.55462C50.3983 4.61914 50.9816 3.85906 51.7982 3.56672C51.9149 3.56672 52.0899 3.50825 52.2649 3.50825C52.8482 3.50825 53.3732 3.74212 53.7232 4.26833L72.6809 28.2401C72.8559 28.474 72.9725 28.7663 72.9725 29.0002H73.6725C73.6725 28.5324 73.4975 28.1232 73.2642 27.7724L54.3065 3.80059Z" fill="url(#paint2_linear)"/>
<path d="M72.6807 29.8187L53.723 53.7905C53.373 54.2582 52.848 54.5505 52.2647 54.5505H52.2064L51.623 54.8429C51.623 54.8429 53.1397 55.4275 54.1313 54.3751C54.1896 54.3167 54.1896 54.2582 54.248 54.2582L73.2057 30.2864C73.4973 29.9356 73.614 29.4679 73.614 29.0586H72.914C72.9723 29.2925 72.8557 29.5848 72.6807 29.8187Z" fill="url(#paint3_linear)"/>
<path d="M35.4072 54.4917C35.5822 54.4917 35.7572 54.4917 35.9322 54.4332C36.7489 54.1993 37.3322 53.3808 37.3322 52.4453V5.55417C37.3322 4.79409 36.9239 4.15094 36.3989 3.80014L35.8739 3.27393C35.8739 3.27393 37.3905 3.44933 37.9155 4.79409C37.9738 5.02796 38.0322 5.3203 38.0322 5.61264V52.4453C38.0322 53.6731 37.2739 54.784 36.1656 55.0763C36.0489 55.1348 35.9322 55.1348 35.8156 55.1933C34.7073 55.2517 34.0073 54.3747 33.8906 54.1993L34.1823 53.9655C34.4739 54.2578 34.8823 54.4917 35.4072 54.4917Z" fill="url(#paint4_linear)"/>
<path d="M35.6986 54.1411L15.8659 29H14.1743C14.1743 29.3508 14.291 29.7016 14.5243 29.994L33.482 53.9657C33.8903 54.4919 34.532 54.8427 35.232 54.8427C35.4653 54.8427 35.6986 54.7843 35.8736 54.7258L35.6986 54.1411Z" fill="url(#paint5_linear)"/>
<path d="M71.4559 29H73.1475C73.1475 28.6492 73.0309 28.2984 72.7975 28.006L53.8398 4.03424C53.4315 3.50803 52.7899 3.15723 52.0899 3.15723C51.8566 3.15723 51.6816 3.21569 51.4482 3.27416L51.6232 3.91731L71.4559 29Z" fill="url(#paint6_linear)"/>
<path d="M35.6988 3.85871L35.8155 3.21557C35.6405 3.1571 35.4072 3.09863 35.1738 3.09863C34.4739 3.09863 33.8906 3.39097 33.4239 3.97565L14.4662 27.9474C14.2329 28.2398 14.1162 28.5906 14.1162 28.9414H15.8078L35.6988 3.85871Z" fill="url(#paint7_linear)"/>
<path d="M35.8154 3.27393L35.6987 3.91707V54.1409L35.8154 54.7255C36.7487 54.4332 37.4487 53.4977 37.4487 52.3868V5.55417C37.4487 4.50175 36.7487 3.56626 35.8154 3.27393Z" fill="url(#paint8_linear)"/>
<path d="M2.62509 28.2397L22.9827 2.45544L22.1661 0.584473L1.22514 27.0119C0.816822 27.5381 0.583496 28.2397 0.583496 28.9998V29.0583H2.33344C2.33344 28.7075 2.4501 28.4736 2.62509 28.2397Z" fill="url(#paint9_linear)"/>
<path d="M71.4559 29L51.6232 54.0827L51.4482 54.7258C51.6816 54.7843 51.8566 54.8427 52.0899 54.8427C52.7315 54.8427 53.3732 54.5504 53.8398 53.9657L72.7975 29.994C73.0309 29.7016 73.1475 29.3508 73.1475 29H71.4559Z" fill="url(#paint10_linear)"/>
<path d="M51.6232 54.1412V3.85897L51.4482 3.21582C50.5149 3.50816 49.8149 4.44364 49.8149 5.55453V52.3872C49.8149 53.4981 50.5149 54.4336 51.4482 54.7259L51.6232 54.1412Z" fill="url(#paint11_linear)"/>
<path d="M2.62509 29.7601C2.4501 29.5262 2.33344 29.2923 2.33344 29H0.583496C0.583496 29.7016 0.816822 30.4032 1.22514 30.9294L22.1661 57.4153L22.9827 55.4859L2.62509 29.7601Z" fill="url(#paint12_linear)"/>
<path d="M86.7386 29H84.9887C84.9887 29.2923 84.872 29.5262 84.7553 29.7601L64.3394 55.5444L65.156 57.4738L86.097 30.9879C86.5053 30.4617 86.7386 29.7601 86.7386 29Z" fill="url(#paint13_linear)"/>
<path d="M86.097 27.0119L65.156 0.584473L64.3394 2.51391L84.697 28.2982C84.872 28.4736 84.9303 28.7659 84.9303 29.0583H86.6803C86.7386 28.2982 86.5053 27.5381 86.097 27.0119Z" fill="url(#paint14_linear)"/>
<path d="M86.7387 29C86.7387 28.2399 86.5053 27.5383 86.097 27.0121L84.6387 25.1411L83.2388 26.3105L84.7554 28.1814C84.9304 28.3568 84.9887 28.6492 84.9887 28.9415C84.9887 29.2339 84.8721 29.4677 84.7554 29.7016L83.2388 31.5726L84.6387 32.7419L86.097 30.871C86.5053 30.4617 86.7387 29.7601 86.7387 29Z" fill="url(#paint15_linear)"/>
<path d="M2.62509 29.7602C2.4501 29.5263 2.33344 29.2924 2.33344 29.0001C2.33344 28.7078 2.4501 28.4739 2.56676 28.24L4.08338 26.3691L2.68343 25.1997L1.22514 27.0707C0.816822 27.5384 0.583496 28.24 0.583496 29.0001V29.0586C0.583496 29.7602 0.816822 30.4618 1.22514 30.988L2.68343 32.859L4.08338 31.6896L2.62509 29.7602Z" fill="url(#paint16_linear)"/>
<path d="M2.27479 27.9475C2.04147 28.2398 1.9248 28.6491 1.9248 28.9999H2.33312C2.33312 28.7075 2.44979 28.4737 2.56645 28.2398L22.9824 2.45553L22.7491 1.98779L2.27479 27.9475Z" fill="url(#paint17_linear)"/>
<path d="M64.3396 2.45544L65.1563 0.584473H22.166L22.9827 2.45544H64.3396Z" fill="url(#paint18_linear)"/>
<path d="M64.3393 2.45544L66.3809 5.02802L67.6059 3.6248L65.156 0.584473H61.0728V2.45544H64.3393Z" fill="url(#paint19_linear)"/>
<path d="M22.9827 55.5444L22.166 57.4154H65.1563L64.3396 55.5444H22.9827Z" fill="url(#paint20_linear)"/>
<path d="M22.9824 55.5443L20.9408 52.9717L19.7158 54.3749L22.1657 57.4152H26.2489V55.5443H22.9824Z" fill="url(#paint21_linear)"/>
<path d="M2.21669 30.0524L22.7493 56.0121L22.9827 55.5444L2.62501 29.7601C2.45001 29.5262 2.33335 29.2923 2.33335 29H1.8667C1.8667 29.4093 1.98336 29.7601 2.21669 30.0524Z" fill="url(#paint22_linear)"/>
<path d="M64.3393 2.45553L64.5726 1.98779H22.749L22.9823 2.45553H64.3393Z" fill="url(#paint23_linear)"/>
<path d="M108.846 47.0083V48.7039H105.58V57.7664H103.596V48.7039H100.271V47.0083H108.846Z" fill="#404040"/>
<path d="M112.638 49.4639C113.279 49.4639 113.804 49.5223 114.213 49.6977C114.621 49.8731 114.971 50.0485 115.204 50.3409C115.438 50.6332 115.613 50.984 115.729 51.3348C115.846 51.7441 115.904 52.1534 115.904 52.6211V57.5324C115.613 57.5909 115.204 57.6494 114.621 57.7663C114.038 57.8248 113.396 57.8832 112.638 57.8832C112.171 57.8832 111.704 57.8248 111.296 57.7663C110.888 57.6494 110.538 57.5324 110.246 57.2985C109.954 57.0647 109.721 56.8308 109.604 56.48C109.429 56.1292 109.371 55.7199 109.371 55.2522C109.371 54.7844 109.488 54.3752 109.663 54.0828C109.838 53.732 110.071 53.4981 110.421 53.3227C110.713 53.1473 111.121 52.9719 111.529 52.9135C111.938 52.7965 112.346 52.7965 112.813 52.7965C113.046 52.7965 113.221 52.7965 113.454 52.855C113.688 52.855 113.921 52.9135 114.213 52.9719V52.6796C114.213 52.4457 114.213 52.2703 114.154 52.0364C114.096 51.861 114.038 51.6856 113.863 51.5102C113.746 51.3348 113.571 51.2179 113.338 51.1594C113.104 51.101 112.871 51.0425 112.521 51.0425C112.113 51.0425 111.704 51.101 111.354 51.1594C111.004 51.2179 110.713 51.2764 110.479 51.3933L110.246 49.8731C110.479 49.8147 110.829 49.6977 111.296 49.6393C111.646 49.5223 112.113 49.4639 112.638 49.4639ZM112.813 56.48C113.396 56.48 113.804 56.4215 114.154 56.3631V54.2582C114.038 54.1998 113.921 54.1998 113.688 54.1413C113.513 54.0828 113.279 54.0828 113.046 54.0828C112.813 54.0828 112.638 54.0828 112.404 54.1413C112.171 54.1998 111.996 54.2582 111.821 54.3167C111.646 54.3752 111.529 54.4921 111.413 54.6675C111.296 54.8429 111.238 55.0183 111.238 55.2522C111.238 55.7199 111.354 56.0123 111.646 56.1877C111.938 56.4215 112.346 56.48 112.813 56.48Z" fill="#404040"/>
<path d="M119.988 47.3002C119.988 47.651 119.871 47.9434 119.638 48.1188C119.404 48.3526 119.113 48.4111 118.821 48.4111C118.529 48.4111 118.238 48.2942 118.004 48.1188C117.771 47.8849 117.654 47.651 117.654 47.3002C117.654 46.9494 117.771 46.6571 118.004 46.4232C118.238 46.1893 118.529 46.1309 118.821 46.1309C119.113 46.1309 119.404 46.2478 119.638 46.4232C119.871 46.6571 119.988 46.9494 119.988 47.3002ZM119.813 57.8244H117.946V49.6974H119.813V57.8244Z" fill="#404040"/>
<path d="M126.754 52.6796C126.52 53.6151 126.287 54.4921 125.996 55.3691C125.704 56.2461 125.471 57.0647 125.179 57.8248H123.662C123.429 57.357 123.254 56.8308 123.021 56.1877C122.787 55.603 122.554 54.9014 122.321 54.1998C122.087 53.4982 121.854 52.7965 121.621 52.0365C121.387 51.2764 121.154 50.5163 120.979 49.6978H122.962C123.079 50.107 123.137 50.5748 123.312 51.101C123.429 51.6272 123.546 52.0949 123.721 52.6211C123.837 53.1474 124.012 53.6736 124.129 54.1413C124.246 54.6675 124.421 55.0768 124.596 55.4861C124.771 55.0183 124.887 54.4921 125.062 54.0244C125.237 53.4982 125.354 53.0304 125.471 52.5042C125.587 51.978 125.704 51.5103 125.879 51.0425C125.996 50.5748 126.112 50.107 126.17 49.6978H127.629C127.745 50.107 127.804 50.5748 127.92 51.0425C128.037 51.5103 128.154 52.0365 128.27 52.5042C128.387 53.0304 128.562 53.4982 128.679 54.0244C128.854 54.5506 128.97 55.0183 129.145 55.4861C129.262 55.0768 129.437 54.609 129.554 54.1413C129.729 53.6151 129.845 53.1474 129.962 52.6211C130.079 52.0949 130.254 51.5687 130.37 51.101C130.487 50.5748 130.604 50.107 130.72 49.6978H132.645C132.412 50.5163 132.179 51.2764 132.004 52.0365C131.77 52.7965 131.537 53.5566 131.304 54.1998C131.07 54.9014 130.837 55.5445 130.604 56.1877C130.37 56.7724 130.137 57.357 129.962 57.8248H128.329C128.037 57.0647 127.804 56.2461 127.512 55.3691C127.22 54.4921 126.987 53.6151 126.754 52.6796Z" fill="#404040"/>
<path d="M136.379 49.4639C137.021 49.4639 137.545 49.5223 137.954 49.6977C138.362 49.8731 138.712 50.0485 138.945 50.3409C139.179 50.6332 139.354 50.984 139.47 51.3348C139.587 51.7441 139.645 52.1534 139.645 52.6211V57.5324C139.354 57.5909 138.945 57.6494 138.362 57.7663C137.779 57.8248 137.137 57.8832 136.379 57.8832C135.912 57.8832 135.446 57.8248 135.037 57.7663C134.629 57.6494 134.279 57.5324 133.987 57.2985C133.696 57.0647 133.462 56.8308 133.346 56.48C133.171 56.1292 133.112 55.7199 133.112 55.2522C133.112 54.7844 133.229 54.3752 133.404 54.0828C133.579 53.732 133.812 53.4981 134.162 53.3227C134.454 53.1473 134.862 52.9719 135.212 52.9135C135.621 52.7965 136.029 52.7965 136.496 52.7965C136.729 52.7965 136.904 52.7965 137.137 52.855C137.371 52.855 137.604 52.9135 137.895 52.9719V52.6796C137.895 52.4457 137.895 52.2703 137.837 52.0364C137.779 51.861 137.72 51.6856 137.545 51.5102C137.429 51.3348 137.254 51.2179 137.021 51.1594C136.787 51.101 136.554 51.0425 136.204 51.0425C135.796 51.0425 135.387 51.101 135.037 51.1594C134.687 51.2179 134.396 51.2764 134.162 51.3933L133.929 49.8731C134.162 49.8147 134.512 49.6977 134.979 49.6393C135.387 49.5223 135.854 49.4639 136.379 49.4639ZM136.496 56.48C137.079 56.48 137.545 56.4215 137.837 56.3631V54.2582C137.72 54.1998 137.604 54.1998 137.37 54.1413C137.196 54.0828 136.962 54.0828 136.729 54.0828C136.496 54.0828 136.321 54.0828 136.087 54.1413C135.854 54.1998 135.679 54.2582 135.504 54.3167C135.329 54.3752 135.212 54.4921 135.096 54.6675C134.979 54.8429 134.921 55.0183 134.921 55.2522C134.921 55.7199 135.037 56.0123 135.329 56.1877C135.679 56.4215 136.029 56.48 136.496 56.48Z" fill="#404040"/>
<path d="M141.628 49.9317C141.978 49.8148 142.445 49.7563 143.028 49.6394C143.612 49.5225 144.253 49.5225 144.953 49.5225C145.595 49.5225 146.178 49.6394 146.587 49.8148C147.053 49.9902 147.403 50.2241 147.637 50.5749C147.928 50.9257 148.103 51.2765 148.22 51.7442C148.337 52.212 148.395 52.7382 148.395 53.2644V57.8249H146.528V53.5567C146.528 53.1475 146.47 52.7382 146.47 52.4458C146.412 52.1535 146.295 51.9196 146.178 51.6858C146.062 51.5104 145.887 51.335 145.653 51.2765C145.42 51.218 145.187 51.1596 144.837 51.1596C144.603 51.1596 144.37 51.1596 144.078 51.218C143.845 51.2765 143.612 51.2765 143.495 51.2765V57.8249H141.628V49.9317Z" fill="#404040"/>
<path d="M157.028 57.9416C156.445 57.9416 155.861 57.9416 155.336 57.8832C154.753 57.8247 154.228 57.7662 153.82 57.6493V47.1836C154.053 47.1251 154.286 47.1251 154.52 47.0666C154.753 47.0082 155.045 47.0082 155.336 47.0082C155.628 47.0082 155.861 46.9497 156.153 46.9497C156.445 46.9497 156.678 46.9497 156.911 46.9497C157.553 46.9497 158.195 47.0082 158.72 47.1251C159.303 47.242 159.77 47.359 160.178 47.5929C160.586 47.8267 160.878 48.1191 161.111 48.4699C161.345 48.8207 161.461 49.2884 161.461 49.8731C161.461 50.3993 161.345 50.8086 161.111 51.1594C160.878 51.5102 160.528 51.8025 160.12 52.0364C160.761 52.2703 161.228 52.5626 161.578 52.9719C161.87 53.3812 162.045 53.9074 162.045 54.609C162.045 55.7199 161.636 56.5384 160.82 57.1231C159.945 57.6493 158.72 57.9416 157.028 57.9416ZM155.745 51.3933H157.145C157.903 51.3933 158.486 51.2763 158.895 51.1009C159.303 50.867 159.536 50.5162 159.536 49.9316C159.536 49.4054 159.303 49.0545 158.895 48.8207C158.428 48.5868 157.903 48.4699 157.203 48.4699C156.911 48.4699 156.62 48.4699 156.386 48.4699C156.153 48.4699 155.978 48.4699 155.803 48.5283V51.3933H155.745ZM155.745 52.9719V56.2461C155.978 56.2461 156.211 56.3045 156.445 56.3045C156.678 56.3045 156.911 56.3045 157.145 56.3045C157.553 56.3045 157.903 56.3045 158.253 56.2461C158.603 56.1876 158.895 56.1291 159.128 55.9537C159.361 55.8368 159.595 55.6614 159.711 55.4275C159.886 55.1937 159.945 54.9013 159.945 54.609C159.945 54.0243 159.711 53.5566 159.303 53.3227C158.836 53.0888 158.253 52.9719 157.436 52.9719H155.745Z" fill="#404040"/>
<path d="M170.211 57.5324C169.861 57.6494 169.394 57.7078 168.811 57.8248C168.227 57.9417 167.586 58.0002 166.886 58.0002C166.244 58.0002 165.661 57.8832 165.253 57.7078C164.786 57.5324 164.436 57.2401 164.203 56.9478C163.911 56.5969 163.736 56.2461 163.619 55.7784C163.503 55.3107 163.444 54.7844 163.444 54.2582V49.6978H165.311V53.9659C165.311 54.8429 165.428 55.4861 165.661 55.8369C165.894 56.1877 166.361 56.4215 167.003 56.4215C167.236 56.4215 167.469 56.4215 167.703 56.3631C167.936 56.3631 168.169 56.3046 168.286 56.3046V49.6978H170.152V57.5324H170.211Z" fill="#404040"/>
<path d="M174.352 56.48C174.819 56.48 175.227 56.4215 175.461 56.3046C175.694 56.1877 175.811 55.9538 175.811 55.6614C175.811 55.3691 175.694 55.1937 175.461 55.0183C175.227 54.8429 174.819 54.6675 174.236 54.4336C173.886 54.3167 173.594 54.1998 173.302 54.0244C173.011 53.9074 172.777 53.732 172.544 53.5566C172.311 53.3812 172.194 53.1473 172.077 52.855C171.961 52.5627 171.902 52.2703 171.902 51.861C171.902 51.101 172.194 50.5163 172.719 50.107C173.244 49.6977 174.002 49.4639 174.936 49.4639C175.402 49.4639 175.869 49.5223 176.277 49.5808C176.686 49.6393 177.036 49.7562 177.269 49.8147L176.919 51.3348C176.686 51.2179 176.452 51.1594 176.102 51.101C175.811 51.0425 175.402 50.984 174.994 50.984C174.586 50.984 174.294 51.0425 174.061 51.1594C173.827 51.2764 173.711 51.5102 173.711 51.7441C173.711 51.861 173.711 51.978 173.769 52.0949C173.827 52.2119 173.886 52.2703 174.002 52.3873C174.119 52.5042 174.236 52.5627 174.469 52.6796C174.644 52.7381 174.877 52.855 175.169 52.9719C175.636 53.1473 175.986 53.3227 176.277 53.4397C176.569 53.6151 176.861 53.7905 177.036 53.9659C177.211 54.1413 177.386 54.3752 177.502 54.6675C177.619 54.9014 177.619 55.2522 177.619 55.603C177.619 56.3631 177.327 56.9477 176.744 57.357C176.161 57.7663 175.344 57.9417 174.294 57.9417C173.594 57.9417 173.011 57.8832 172.544 57.7663C172.136 57.6494 171.786 57.5324 171.611 57.474L171.961 55.8953C172.252 56.0123 172.602 56.1292 172.952 56.2461C173.419 56.4215 173.827 56.48 174.352 56.48Z" fill="#404040"/>
<path d="M181.177 47.3002C181.177 47.651 181.06 47.9434 180.827 48.1188C180.594 48.3526 180.36 48.4111 180.01 48.4111C179.719 48.4111 179.427 48.2942 179.194 48.1188C178.96 47.8849 178.844 47.651 178.844 47.3002C178.844 46.9494 178.96 46.6571 179.194 46.4232C179.427 46.1893 179.719 46.1309 180.01 46.1309C180.302 46.1309 180.594 46.2478 180.827 46.4232C181.06 46.6571 181.177 46.9494 181.177 47.3002ZM181.002 57.8244H179.077V49.6974H180.944V57.8244H181.002Z" fill="#404040"/>
<path d="M183.044 49.9317C183.394 49.8148 183.86 49.7563 184.444 49.6394C185.027 49.5225 185.669 49.5225 186.369 49.5225C187.01 49.5225 187.594 49.6394 188.002 49.8148C188.469 49.9902 188.819 50.2241 189.052 50.5749C189.343 50.9257 189.518 51.2765 189.635 51.7442C189.752 52.212 189.81 52.7382 189.81 53.2644V57.8249H187.944V53.5567C187.944 53.1475 187.885 52.7382 187.827 52.4458C187.769 52.1535 187.652 51.9196 187.535 51.6858C187.419 51.5104 187.244 51.335 187.01 51.2765C186.777 51.218 186.544 51.1596 186.194 51.1596C185.96 51.1596 185.727 51.1596 185.435 51.218C185.202 51.2765 184.969 51.2765 184.852 51.2765V57.8249H182.985V49.9317H183.044Z" fill="#404040"/>
<path d="M191.385 53.7905C191.385 53.0889 191.502 52.4457 191.677 51.9195C191.91 51.3933 192.144 50.9256 192.494 50.5748C192.844 50.2239 193.252 49.9316 193.719 49.7562C194.185 49.5808 194.652 49.4639 195.118 49.4639C196.227 49.4639 197.102 49.8147 197.743 50.5163C198.385 51.2179 198.677 52.2703 198.677 53.6151C198.677 53.732 198.677 53.849 198.677 53.9659C198.677 54.0828 198.677 54.1998 198.677 54.3167H193.31C193.369 54.9598 193.602 55.4861 194.01 55.8369C194.418 56.1877 195.002 56.3631 195.76 56.3631C196.227 56.3631 196.635 56.3046 196.985 56.2461C197.335 56.1877 197.685 56.0707 197.86 55.9538L198.093 57.474C197.977 57.5324 197.86 57.5909 197.685 57.6494C197.51 57.7078 197.277 57.7663 197.043 57.8248C196.81 57.8832 196.577 57.8832 196.285 57.9417C195.993 58.0002 195.76 58.0002 195.468 58.0002C194.768 58.0002 194.127 57.8832 193.602 57.7078C193.077 57.474 192.669 57.1816 192.319 56.8308C191.969 56.48 191.735 56.0123 191.56 55.4861C191.444 54.9598 191.385 54.3752 191.385 53.7905ZM196.81 52.9135C196.81 52.6796 196.752 52.3873 196.693 52.1534C196.635 51.9195 196.518 51.7441 196.402 51.5687C196.285 51.3933 196.11 51.2764 195.877 51.1594C195.702 51.0425 195.41 51.0425 195.177 51.0425C194.885 51.0425 194.652 51.101 194.418 51.2179C194.185 51.3348 194.01 51.4518 193.893 51.6272C193.719 51.8026 193.602 51.978 193.544 52.2119C193.485 52.4457 193.427 52.6796 193.369 52.9135H196.81Z" fill="#404040"/>
<path d="M202.41 56.48C202.935 56.48 203.285 56.4215 203.518 56.3046C203.751 56.1877 203.868 55.9538 203.868 55.6614C203.868 55.3691 203.751 55.1937 203.518 55.0183C203.285 54.8429 202.876 54.6675 202.293 54.4336C201.943 54.3167 201.652 54.1998 201.36 54.0244C201.068 53.9074 200.835 53.732 200.602 53.5566C200.368 53.3812 200.252 53.1473 200.135 52.855C200.018 52.5627 199.96 52.2703 199.96 51.861C199.96 51.101 200.252 50.5163 200.777 50.107C201.302 49.6977 202.06 49.4639 202.993 49.4639C203.46 49.4639 203.926 49.5223 204.335 49.5808C204.743 49.6393 205.093 49.7562 205.326 49.8147L204.976 51.3348C204.743 51.2179 204.51 51.1594 204.16 51.101C203.868 51.0425 203.46 50.984 203.051 50.984C202.643 50.984 202.351 51.0425 202.118 51.1594C201.885 51.2764 201.768 51.5102 201.768 51.7441C201.768 51.861 201.768 51.978 201.827 52.0949C201.885 52.2119 201.943 52.2703 202.06 52.3873C202.176 52.5042 202.351 52.5627 202.526 52.6796C202.701 52.7381 202.935 52.855 203.226 52.9719C203.693 53.1473 204.043 53.3227 204.335 53.4397C204.626 53.6151 204.918 53.7905 205.093 53.9659C205.268 54.1413 205.443 54.3752 205.56 54.6675C205.676 54.9014 205.676 55.2522 205.676 55.603C205.676 56.3631 205.385 56.9477 204.801 57.357C204.218 57.7663 203.401 57.9417 202.351 57.9417C201.652 57.9417 201.068 57.8832 200.66 57.7663C200.252 57.6494 199.902 57.5324 199.727 57.474L200.077 55.8953C200.368 56.0123 200.66 56.1292 201.068 56.2461C201.477 56.4215 201.885 56.48 202.41 56.48Z" fill="#404040"/>
<path d="M209.176 56.48C209.701 56.48 210.051 56.4215 210.285 56.3046C210.518 56.1877 210.635 55.9538 210.635 55.6614C210.635 55.3691 210.518 55.1937 210.285 55.0183C210.051 54.8429 209.643 54.6675 209.06 54.4336C208.71 54.3167 208.418 54.1998 208.126 54.0244C207.835 53.9074 207.601 53.732 207.368 53.5566C207.135 53.3812 207.018 53.1473 206.901 52.855C206.785 52.5627 206.726 52.2703 206.726 51.861C206.726 51.101 207.018 50.5163 207.543 50.107C208.068 49.6977 208.826 49.4639 209.76 49.4639C210.226 49.4639 210.693 49.5223 211.101 49.5808C211.51 49.6393 211.86 49.7562 212.093 49.8147L211.743 51.3348C211.51 51.2179 211.276 51.1594 210.926 51.101C210.576 51.0425 210.226 50.984 209.818 50.984C209.41 50.984 209.118 51.0425 208.885 51.1594C208.651 51.2764 208.535 51.5102 208.535 51.7441C208.535 51.861 208.535 51.978 208.593 52.0949C208.651 52.2119 208.71 52.2703 208.826 52.3873C208.943 52.5042 209.118 52.5627 209.293 52.6796C209.468 52.7381 209.701 52.855 209.993 52.9719C210.46 53.1473 210.81 53.3227 211.101 53.4397C211.393 53.6151 211.685 53.7905 211.86 53.9659C212.035 54.1413 212.21 54.3752 212.326 54.6675C212.443 54.9014 212.443 55.2522 212.443 55.603C212.443 56.3631 212.151 56.9477 211.568 57.357C210.985 57.7663 210.168 57.9417 209.118 57.9417C208.418 57.9417 207.835 57.8832 207.426 57.7663C207.018 57.6494 206.668 57.5324 206.493 57.474L206.843 55.8953C207.135 56.0123 207.485 56.1292 207.835 56.2461C208.243 56.4215 208.71 56.48 209.176 56.48Z" fill="#404040"/>
<path d="M220.551 57.9416C219.968 57.9416 219.384 57.9416 218.859 57.8832C218.276 57.8247 217.751 57.7662 217.343 57.6493V47.1836C217.576 47.1251 217.809 47.1251 218.101 47.0666C218.334 47.0082 218.626 47.0082 218.918 47.0082C219.209 47.0082 219.443 46.9497 219.734 46.9497C220.026 46.9497 220.259 46.9497 220.493 46.9497C221.134 46.9497 221.776 47.0082 222.301 47.1251C222.884 47.242 223.351 47.359 223.759 47.5929C224.168 47.8267 224.459 48.1191 224.693 48.4699C224.926 48.8207 225.043 49.2884 225.043 49.8731C225.043 50.3993 224.926 50.8086 224.693 51.1594C224.459 51.5102 224.109 51.8025 223.701 52.0364C224.343 52.2703 224.809 52.5626 225.159 52.9719C225.451 53.3812 225.626 53.9074 225.626 54.609C225.626 55.7199 225.218 56.5384 224.401 57.1231C223.468 57.6493 222.243 57.9416 220.551 57.9416ZM219.268 51.3933H220.668C221.426 51.3933 222.009 51.2763 222.418 51.1009C222.826 50.867 223.059 50.5162 223.059 49.9316C223.059 49.4054 222.826 49.0545 222.418 48.8207C221.951 48.5868 221.426 48.4699 220.726 48.4699C220.434 48.4699 220.143 48.4699 219.909 48.4699C219.676 48.4699 219.501 48.4699 219.326 48.5283V51.3933H219.268ZM219.268 52.9719V56.2461C219.501 56.2461 219.734 56.3045 219.968 56.3045C220.201 56.3045 220.434 56.3045 220.668 56.3045C221.076 56.3045 221.426 56.3045 221.776 56.2461C222.126 56.1876 222.418 56.1291 222.651 55.9537C222.884 55.8368 223.118 55.6614 223.234 55.4275C223.409 55.1937 223.468 54.9013 223.468 54.609C223.468 54.0243 223.234 53.5566 222.826 53.3227C222.359 53.0888 221.776 52.9719 220.959 52.9719H219.268Z" fill="#404040"/>
<path d="M229.826 49.4639C230.467 49.4639 230.992 49.5223 231.401 49.6977C231.809 49.8731 232.159 50.0485 232.392 50.3409C232.626 50.6332 232.801 50.984 232.917 51.3348C233.034 51.7441 233.092 52.1534 233.092 52.6211V57.5324C232.801 57.5909 232.392 57.6494 231.809 57.7663C231.226 57.8248 230.584 57.8832 229.826 57.8832C229.359 57.8832 228.892 57.8248 228.484 57.7663C228.076 57.6494 227.726 57.5324 227.434 57.2985C227.142 57.0647 226.909 56.8308 226.792 56.48C226.617 56.1292 226.559 55.7199 226.559 55.2522C226.559 54.7844 226.676 54.3752 226.851 54.0828C227.026 53.732 227.259 53.4981 227.609 53.3227C227.901 53.1473 228.251 52.9719 228.659 52.9135C229.067 52.7965 229.476 52.7965 229.942 52.7965C230.176 52.7965 230.351 52.7965 230.584 52.855C230.817 52.855 231.051 52.9135 231.284 52.9719V52.6796C231.284 52.4457 231.284 52.2703 231.226 52.0364C231.167 51.861 231.109 51.6856 230.934 51.5102C230.817 51.3348 230.642 51.2179 230.409 51.1594C230.176 51.101 229.942 51.0425 229.592 51.0425C229.126 51.0425 228.776 51.101 228.367 51.1594C228.017 51.2179 227.726 51.2764 227.492 51.3933L227.259 49.8731C227.492 49.8147 227.842 49.6977 228.309 49.6393C228.776 49.5223 229.301 49.4639 229.826 49.4639ZM229.942 56.48C230.526 56.48 230.934 56.4215 231.284 56.3631V54.2582C231.167 54.1998 231.051 54.1998 230.817 54.1413C230.642 54.0828 230.409 54.0828 230.176 54.0828C229.942 54.0828 229.767 54.0828 229.534 54.1413C229.301 54.1998 229.126 54.2582 228.951 54.3167C228.776 54.3752 228.659 54.4921 228.542 54.6675C228.426 54.8429 228.367 55.0183 228.367 55.2522C228.367 55.7199 228.484 56.0123 228.776 56.1877C229.126 56.4215 229.476 56.48 229.942 56.48Z" fill="#404040"/>
<path d="M235.075 49.9317C235.425 49.8148 235.892 49.7563 236.475 49.6394C237.058 49.5225 237.7 49.5225 238.4 49.5225C239.042 49.5225 239.625 49.6394 240.033 49.8148C240.5 49.9902 240.85 50.2241 241.083 50.5749C241.375 50.9257 241.55 51.2765 241.667 51.7442C241.783 52.212 241.842 52.7382 241.842 53.2644V57.8249H239.975V53.5567C239.975 53.1475 239.975 52.7382 239.917 52.4458C239.858 52.1535 239.742 51.9196 239.625 51.6858C239.508 51.5104 239.333 51.335 239.1 51.2765C238.867 51.218 238.633 51.1596 238.283 51.1596C238.05 51.1596 237.817 51.1596 237.525 51.218C237.292 51.2765 237.058 51.2765 236.942 51.2765V57.8249H235.075V49.9317Z" fill="#404040"/>
<path d="M245.692 52.8549L248.55 49.6976H250.767L247.383 53.3226L250.942 57.8246H248.783L245.633 54.0827V57.8246H243.825V46.0726L245.692 45.7803V52.8549Z" fill="#404040"/>
<path d="M115.146 12.6875H104.063V14.5585H130.079C130.487 14.5585 130.779 14.2661 130.779 13.9153V12.6875H119.696V11.1674H132.004C132.412 11.1674 132.704 10.875 132.704 10.5242V9.23792H119.696V7.48389H115.146V9.23792H102.138V11.1674H115.146V12.6875ZM119.696 34.8468H130.079C130.487 34.8468 130.779 34.5545 130.779 34.2036V32.9758H119.696V31.6311H126.871C128.271 31.6311 129.379 30.5786 129.379 29.2924V28.2399H124.887V29.2339C124.887 29.5262 124.596 29.8186 124.246 29.8186H109.896L112.229 27.3045H128.679C129.087 27.3045 129.379 27.0121 129.379 26.6613V25.492H105.521V27.3045H107.505L105.696 29.3508C105.463 29.5847 105.346 29.9355 105.346 30.2863C105.346 31.1049 106.046 31.748 106.921 31.748H115.204V33.0928H104.121V34.9637H115.204V36.3085H100.33V38.5303H133.929C134.337 38.5303 134.629 38.2379 134.629 37.8871V36.3085H119.754V34.8468H119.696ZM130.02 15.7278H104.821C104.471 15.7278 104.121 15.9617 104.063 16.3125V21.2823H128.271C129.671 21.2823 130.779 20.2299 130.779 18.9436V16.4295C130.779 16.0786 130.487 15.7278 130.02 15.7278ZM127.104 19.002C127.104 19.2944 126.812 19.5867 126.462 19.5867H107.796V17.4234H127.104V19.002ZM132.062 22.4516H101.03C100.621 22.4516 100.271 22.744 100.271 23.1532V28.0061H104.005V24.3226H130.254C130.604 24.3226 130.895 24.5565 130.895 24.9073V28.0061H134.629V24.7903C134.57 23.5041 133.462 22.4516 132.062 22.4516Z" fill="#404040"/>
<path d="M146.178 15.377L143.845 8.82864C143.728 8.53631 143.437 8.3609 143.087 8.3609H139.995L142.445 15.377H146.178ZM165.253 10.6996V9.47179H162.336V7.48389H158.953V9.47179H156.036V11.3428H164.494C164.903 11.3428 165.253 11.0504 165.253 10.6996ZM164.553 13.623V12.5121H156.795V14.2661H163.794C164.203 14.2661 164.553 13.9738 164.553 13.623ZM156.736 17.248H163.736C164.144 17.248 164.494 16.9557 164.494 16.6049V15.494H156.736V17.248ZM156.678 24.9657H162.161C163.503 24.9657 164.611 24.0303 164.611 22.8609V19.0605C164.611 18.7097 164.261 18.4174 163.853 18.4174H157.378C157.028 18.4174 156.736 18.6512 156.678 18.9436V24.9657ZM159.361 19.9375H161.928V22.9778C161.928 23.2702 161.636 23.504 161.344 23.504H159.361V19.9375ZM146.878 17.9496C146.878 18.6512 147.52 19.2359 148.337 19.2359H150.261V25.0827H152.77V22.627L155.453 23.621V22.0424C155.453 21.75 155.278 21.5161 154.986 21.3992L152.77 20.5807V19.2359H153.178C154.636 19.2359 155.803 18.1835 155.803 16.8972V15.7863H152.711V17.0141C152.711 17.3065 152.42 17.5988 152.07 17.5988H150.261L154.461 12.1613C154.461 12.1028 154.52 12.1028 154.52 12.0444C154.52 11.9274 154.403 11.8105 154.286 11.8105H150.611L153.82 7.65929H150.786C150.495 7.65929 150.261 7.77623 150.145 7.95163L147.053 11.9274C146.937 12.1028 146.82 12.3367 146.82 12.629C146.82 13.3307 147.462 13.9153 148.278 13.9153H149.736L147.112 17.3065C146.937 17.4819 146.878 17.7157 146.878 17.9496ZM143.845 18.125C143.728 17.8327 143.437 17.6573 143.087 17.6573H139.995L143.67 28.0645L139.995 38.4133H143.087C143.437 38.4133 143.728 38.2379 143.845 37.9456L147.053 28.9415C147.17 28.6492 147.228 28.3569 147.228 28.0645C147.228 27.7722 147.17 27.4214 147.053 27.1875L143.845 18.125ZM171.669 32.742H152.07L152.536 31.2218H170.386C171.727 31.2218 172.836 30.2863 172.836 29.117V26.7782C172.836 26.4274 172.486 26.1351 172.077 26.1351H148.861V28.0061H168.752V28.9415C168.752 29.2339 168.461 29.4678 168.169 29.4678H149.503C149.153 29.4678 148.861 29.6432 148.803 29.9355L147.928 32.9758C147.928 33.0928 147.87 33.1512 147.87 33.2682C147.87 33.9698 148.453 34.496 149.27 34.5544H169.161L168.811 36.0161C168.752 36.25 168.519 36.4839 168.169 36.4839H152.478L152.653 37.8286C152.711 38.1794 153.12 38.4718 153.528 38.4718H170.386C171.611 38.4718 172.661 37.7117 172.836 36.6593L173.244 34.3206C173.244 34.2036 173.244 34.1452 173.244 34.0282C173.244 33.2682 172.486 32.742 171.669 32.742ZM149.036 24.0887C149.211 23.3871 149.445 21.9839 149.445 20.2299H147.403C147.345 22.1593 147.17 23.3286 146.762 24.6149H148.278C148.686 24.6149 148.978 24.3811 149.036 24.0887ZM171.844 19.2359C173.302 19.2359 174.469 18.1835 174.469 16.8972V15.7863H171.377V17.0141C171.377 17.3065 171.086 17.5988 170.736 17.5988H168.927L173.127 12.1613C173.127 12.1028 173.186 12.1028 173.186 12.0444C173.186 11.9274 173.069 11.8105 172.952 11.8105H169.277L172.486 7.65929H169.452C169.161 7.65929 168.927 7.77623 168.811 7.95163L165.719 11.9274C165.603 12.1028 165.486 12.3367 165.486 12.629C165.486 13.3307 166.128 13.9153 166.944 13.9153H168.403L165.778 17.3065C165.661 17.4819 165.544 17.7157 165.544 18.0081C165.544 18.7097 166.186 19.2944 167.003 19.2944H168.927V25.1411H171.436V22.6855L174.119 23.6795V22.1008C174.119 21.8085 173.944 21.5746 173.652 21.4577L171.436 20.6391V19.2944H171.844V19.2359ZM167.703 24.0887C167.878 23.3871 168.111 21.9839 168.111 20.2299H166.069C166.011 22.1593 165.836 23.3286 165.428 24.6149H166.944C167.353 24.6149 167.644 24.3811 167.703 24.0887Z" fill="#404040"/>
<path d="M198.968 26.4272H210.343C210.751 26.4272 211.043 26.1349 211.043 25.7841V23.9131H198.968V14.2075H195.001V35.899H186.718C186.368 35.899 186.077 35.6651 186.077 35.3143V23.0946H182.227V36.1329C182.227 37.4192 183.335 38.4716 184.735 38.4716H211.568C211.976 38.4716 212.268 38.1792 212.268 37.8284V35.9575H198.91V26.4272H198.968ZM185.902 18.3587C187.885 16.2538 189.635 13.0966 190.743 10.8163H202.76L207.076 18.0079C207.426 18.4756 208.009 18.8264 208.651 18.8264H212.501L206.318 8.88691C205.968 8.41917 205.384 8.06836 204.743 8.06836H188.235C187.593 8.06836 187.127 8.41917 186.835 8.94538C184.035 14.6752 180.127 18.8264 180.127 18.8264H184.852C185.26 18.8264 185.61 18.651 185.902 18.3587Z" fill="#404040"/>
<path d="M227.609 18.8852H231.225C231.634 18.8852 231.925 18.5929 231.925 18.2421V16.605H220.492V18.9437H224.109V22.978H219.501V25.3167H224.109V36.2501H223.001C222.651 36.2501 222.359 36.0163 222.359 35.6655V27.7139H219.442V36.1332C219.442 37.4195 220.551 38.4719 221.951 38.4719H231.809C232.217 38.4719 232.509 38.1796 232.509 37.8288V36.1917H227.55V25.1997H231.809C232.217 25.1997 232.509 24.9074 232.509 24.5566V22.9195H227.55V18.8852H227.609ZM228.892 34.6715H231.109C231.4 34.6715 231.692 34.4376 231.75 34.1453L232.1 26.7199H229.3L228.892 34.6715ZM230.234 7.54248H223.059C222.476 7.54248 222.009 7.89329 221.892 8.4195C220.492 12.8046 218.567 15.1433 218.567 15.1433H221.951C222.359 15.1433 222.709 14.9679 222.942 14.6755C224.051 12.98 224.75 11.2259 225.1 9.88119H228.075L229.184 14.3247C229.3 14.7925 229.709 15.1433 230.234 15.1433H232.917L231.225 8.4195C231.225 7.89329 230.759 7.54248 230.234 7.54248ZM237.933 35.3731V23.7965H247.091C248.433 23.7965 249.541 22.7441 249.541 21.4578V8.7703C249.541 8.36103 249.191 8.06869 248.783 8.06869H235.133C234.784 8.06869 234.492 8.30256 234.434 8.65337V35.7824C234.434 37.2441 235.658 38.4134 237.175 38.4134H239.567C240.092 38.4134 240.617 38.0042 240.675 37.478L240.85 36.0163H238.633C238.225 36.0163 237.933 35.7239 237.933 35.3731ZM237.933 17.1897H243.883C244.292 17.1897 244.583 16.8973 244.583 16.5465V14.6755H237.933V10.4074H246.041V20.9316C246.041 21.2239 245.75 21.5163 245.458 21.5163H237.933V17.1897ZM244.292 31.2219L249.658 25.4336H245.691C245.225 25.4336 244.817 25.6675 244.525 25.9598L240.325 30.4618C240.092 30.6957 239.975 30.988 239.975 31.2219C239.975 31.5143 240.092 31.7481 240.325 31.982L245.925 37.8288C246.216 38.1796 246.625 38.355 247.091 38.355H251.058L244.292 31.2219Z" fill="#404040"/>
</g>
<defs>
<linearGradient id="paint0_linear" x1="26.3085" y1="-0.294269" x2="38.9436" y2="20.9422" gradientUnits="userSpaceOnUse">
<stop stop-color="#D45315"/>
<stop offset="0.0411517" stop-color="#CB4E14"/>
<stop offset="0.1407" stop-color="#B84411"/>
<stop offset="0.2502" stop-color="#A73A0C"/>
<stop offset="0.3716" stop-color="#993307"/>
<stop offset="0.5112" stop-color="#902E03"/>
<stop offset="0.6852" stop-color="#8A2B01"/>
<stop offset="1" stop-color="#882A01"/>
</linearGradient>
<linearGradient id="paint1_linear" x1="37.3012" y1="-1.94796" x2="50.0696" y2="59.9455" gradientUnits="userSpaceOnUse">
<stop stop-color="#F18D00"/>
<stop offset="0.0493972" stop-color="#F08000"/>
<stop offset="0.1385" stop-color="#ED6E00"/>
<stop offset="0.2373" stop-color="#EB6000"/>
<stop offset="0.3523" stop-color="#EA5703"/>
<stop offset="0.522" stop-color="#EA5504"/>
<stop offset="1" stop-color="#EA5504"/>
</linearGradient>
<linearGradient id="paint2_linear" x1="72.8624" y1="17.7522" x2="62.2211" y2="15.8219" gradientUnits="userSpaceOnUse">
<stop stop-color="#FACC80"/>
<stop offset="0.4691" stop-color="#F4A03E"/>
<stop offset="0.8188" stop-color="#F0830D"/>
<stop offset="1" stop-color="#EE7800"/>
</linearGradient>
<linearGradient id="paint3_linear" x1="68.3453" y1="42.9522" x2="57.8965" y2="41.0568" gradientUnits="userSpaceOnUse">
<stop stop-color="#FACC80"/>
<stop offset="0.4691" stop-color="#F4A03E"/>
<stop offset="0.8188" stop-color="#F0830D"/>
<stop offset="1" stop-color="#EE7800"/>
</linearGradient>
<linearGradient id="paint4_linear" x1="34.9729" y1="6.2735" x2="36.7883" y2="51.5515" gradientUnits="userSpaceOnUse">
<stop stop-color="#FCE2BA"/>
<stop offset="0.1484" stop-color="#FDDF9B"/>
<stop offset="0.2589" stop-color="#FCD283"/>
<stop offset="0.6104" stop-color="#F5A83F"/>
<stop offset="0.8671" stop-color="#F18D09"/>
<stop offset="1" stop-color="#F08300"/>
</linearGradient>
<linearGradient id="paint5_linear" x1="35.0167" y1="55.3452" x2="14.8814" y2="28.4633" gradientUnits="userSpaceOnUse">
<stop stop-color="#CB4800"/>
<stop offset="1" stop-color="#AF3200"/>
</linearGradient>
<linearGradient id="paint6_linear" x1="70.0795" y1="24.7398" x2="52.9001" y2="5.82743" gradientUnits="userSpaceOnUse">
<stop stop-color="#CB4800"/>
<stop offset="0.2295" stop-color="#C54500"/>
<stop offset="0.5879" stop-color="#B53A00"/>
<stop offset="1" stop-color="#9C2B00"/>
</linearGradient>
<linearGradient id="paint7_linear" x1="14.1676" y1="16.0781" x2="35.838" y2="16.0781" gradientUnits="userSpaceOnUse">
<stop stop-color="#CB4800"/>
<stop offset="0.2295" stop-color="#C54500"/>
<stop offset="0.5879" stop-color="#B53A00"/>
<stop offset="1" stop-color="#9C2B00"/>
</linearGradient>
<linearGradient id="paint8_linear" x1="36.5849" y1="10.3506" x2="36.5849" y2="54.2207" gradientUnits="userSpaceOnUse">
<stop stop-color="#F7B86D"/>
<stop offset="0.3027" stop-color="#F29442"/>
<stop offset="0.6054" stop-color="#ED7322"/>
<stop offset="0.8483" stop-color="#EB5D0B"/>
<stop offset="1" stop-color="#EA5504"/>
</linearGradient>
<linearGradient id="paint9_linear" x1="21.576" y1="3.26399" x2="2.06158" y2="27.2525" gradientUnits="userSpaceOnUse">
<stop stop-color="#F7B86D"/>
<stop offset="0.0239835" stop-color="#F7B668"/>
<stop offset="0.2134" stop-color="#F5A445"/>
<stop offset="0.4056" stop-color="#F39529"/>
<stop offset="0.5996" stop-color="#F18B0B"/>
<stop offset="0.7963" stop-color="#F08500"/>
<stop offset="1" stop-color="#F08300"/>
</linearGradient>
<linearGradient id="paint10_linear" x1="73.1708" y1="29.0495" x2="51.3895" y2="54.6914" gradientUnits="userSpaceOnUse">
<stop stop-color="#F7B86D"/>
<stop offset="0.0080018" stop-color="#F7B76A"/>
<stop offset="0.1112" stop-color="#F5A74C"/>
<stop offset="0.2234" stop-color="#F39A32"/>
<stop offset="0.3491" stop-color="#F2901B"/>
<stop offset="0.4937" stop-color="#F18800"/>
<stop offset="0.6739" stop-color="#F08400"/>
<stop offset="1" stop-color="#F08300"/>
</linearGradient>
<linearGradient id="paint11_linear" x1="50.7175" y1="54.7462" x2="50.7175" y2="3.26838" gradientUnits="userSpaceOnUse">
<stop stop-color="#CB4800"/>
<stop offset="1" stop-color="#9C2B00"/>
</linearGradient>
<linearGradient id="paint12_linear" x1="3.67973" y1="32.6112" x2="17.9994" y2="50.259" gradientUnits="userSpaceOnUse">
<stop stop-color="#DC4F03"/>
<stop offset="1" stop-color="#CA3D04"/>
</linearGradient>
<linearGradient id="paint13_linear" x1="32.504" y1="60.2835" x2="79.4755" y2="41.5387" gradientUnits="userSpaceOnUse">
<stop stop-color="#AE4003"/>
<stop offset="1" stop-color="#932600"/>
</linearGradient>
<linearGradient id="paint14_linear" x1="64.573" y1="1.89286" x2="83.3551" y2="24.8646" gradientUnits="userSpaceOnUse">
<stop offset="0.1923" stop-color="#DC4F03"/>
<stop offset="0.989" stop-color="#B94100"/>
</linearGradient>
<linearGradient id="paint15_linear" x1="84.986" y1="27.8161" x2="84.986" y2="30.2345" gradientUnits="userSpaceOnUse">
<stop offset="0.3535" stop-color="#B94100"/>
<stop offset="0.7767" stop-color="#932600"/>
</linearGradient>
<linearGradient id="paint16_linear" x1="2.32772" y1="27.8163" x2="2.32772" y2="30.2346" gradientUnits="userSpaceOnUse">
<stop offset="0.3535" stop-color="#F08300"/>
<stop offset="0.7767" stop-color="#DC4F03"/>
</linearGradient>
<linearGradient id="paint17_linear" x1="20.1126" y1="6.69661" x2="4.3896" y2="24.913" gradientUnits="userSpaceOnUse">
<stop stop-color="#FCE2BA"/>
<stop offset="0.1484" stop-color="#FCD697"/>
<stop offset="0.5024" stop-color="#F9C366"/>
<stop offset="0.8302" stop-color="#F7B33C"/>
<stop offset="1" stop-color="#F6AC29"/>
</linearGradient>
<linearGradient id="paint18_linear" x1="21.8423" y1="1.52487" x2="65.4712" y2="1.52487" gradientUnits="userSpaceOnUse">
<stop stop-color="#F7B86D"/>
<stop offset="0.072675" stop-color="#F6AD5A"/>
<stop offset="0.2141" stop-color="#F39A3C"/>
<stop offset="0.3634" stop-color="#F18B23"/>
<stop offset="0.5221" stop-color="#EF8009"/>
<stop offset="0.6966" stop-color="#EF7A00"/>
<stop offset="0.9176" stop-color="#EE7800"/>
</linearGradient>
<linearGradient id="paint19_linear" x1="61.964" y1="0.819747" x2="66.3517" y2="3.47416" gradientUnits="userSpaceOnUse">
<stop offset="0.456" stop-color="#EE7800"/>
<stop offset="0.6209" stop-color="#DC4F03"/>
</linearGradient>
<linearGradient id="paint20_linear" x1="31.6696" y1="61.4497" x2="80.2745" y2="42.0531" gradientUnits="userSpaceOnUse">
<stop stop-color="#B94100"/>
<stop offset="1" stop-color="#932600"/>
</linearGradient>
<linearGradient id="paint21_linear" x1="25.3475" y1="57.1841" x2="20.9583" y2="54.5285" gradientUnits="userSpaceOnUse">
<stop offset="0.456" stop-color="#B94100"/>
<stop offset="0.6209" stop-color="#CA3D04"/>
</linearGradient>
<linearGradient id="paint22_linear" x1="2.84323" y1="30.8046" x2="21.8165" y2="53.5762" gradientUnits="userSpaceOnUse">
<stop stop-color="#F6AC29"/>
<stop offset="0.2309" stop-color="#F08615"/>
<stop offset="0.4557" stop-color="#EC6305"/>
<stop offset="0.5721" stop-color="#EA5504"/>
<stop offset="0.6946" stop-color="#E95304"/>
<stop offset="0.812" stop-color="#E14E05"/>
<stop offset="0.9268" stop-color="#D54505"/>
<stop offset="1" stop-color="#CA3D04"/>
</linearGradient>
<linearGradient id="paint23_linear" x1="40.6949" y1="-3.90306" x2="47.009" y2="8.69576" gradientUnits="userSpaceOnUse">
<stop stop-color="#FCE2BA"/>
<stop offset="0.1484" stop-color="#FCD697"/>
<stop offset="0.2589" stop-color="#FAC980"/>
<stop offset="0.6104" stop-color="#F49E3E"/>
<stop offset="0.8671" stop-color="#F0830D"/>
<stop offset="1" stop-color="#EE7800"/>
</linearGradient>
<clipPath id="clip0">
<rect width="251" height="58" fill="white"/>
</clipPath>
</defs>
</svg>
